<svg width="25" height="24" viewBox="0 0 25 24" fill="none" xmlns="http://www.w3.org/2000/svg">
<g clip-path="url(#clip0_23_1395)">
<g clip-path="url(#clip1_23_1395)">
<path d="M22.04 8.16216V8.23516C22.04 9.09516 22.04 9.52616 21.833 9.87816C21.626 10.2302 21.249 10.4392 20.497 10.8582L19.704 11.2982C20.25 9.45016 20.433 7.46416 20.5 5.76616L20.51 5.54516L20.512 5.49316C21.163 5.71916 21.529 5.88816 21.757 6.20416C22.04 6.59716 22.04 7.11916 22.04 8.16216ZM2.04004 8.16216V8.23516C2.04004 9.09516 2.04004 9.52616 2.24704 9.87816C2.45404 10.2302 2.83104 10.4392 3.58304 10.8582L4.37704 11.2982C3.83004 9.45016 3.64704 7.46416 3.58004 5.76616L3.57004 5.54516L3.56904 5.49316C2.91704 5.71916 2.55104 5.88816 2.32304 6.20416C2.04004 6.59716 2.04004 7.12016 2.04004 8.16216Z" fill="#923CF6"/>
<path fill-rule="evenodd" clip-rule="evenodd" d="M16.4174 2.34724C14.9706 2.11011 13.5065 1.99404 12.0404 2.00024C10.2574 2.00024 8.78741 2.15724 7.66341 2.34724C6.52441 2.53924 5.95541 2.63524 5.47941 3.22124C5.00441 3.80724 5.02941 4.44024 5.07941 5.70624C5.25241 10.0542 6.19041 15.4862 11.2904 15.9662V19.5002H9.86041C9.62932 19.5004 9.40541 19.5805 9.22675 19.7271C9.04809 19.8737 8.92571 20.0776 8.88041 20.3042L8.69041 21.2502H6.04041C5.8415 21.2502 5.65073 21.3293 5.51008 21.4699C5.36943 21.6106 5.29041 21.8013 5.29041 22.0002C5.29041 22.1991 5.36943 22.3899 5.51008 22.5306C5.65073 22.6712 5.8415 22.7502 6.04041 22.7502H18.0404C18.2393 22.7502 18.4301 22.6712 18.5707 22.5306C18.7114 22.3899 18.7904 22.1991 18.7904 22.0002C18.7904 21.8013 18.7114 21.6106 18.5707 21.4699C18.4301 21.3293 18.2393 21.2502 18.0404 21.2502H15.3904L15.2004 20.3042C15.1551 20.0776 15.0327 19.8737 14.8541 19.7271C14.6754 19.5805 14.4515 19.5004 14.2204 19.5002H12.7904V15.9662C17.8904 15.4862 18.8294 10.0552 19.0014 5.70624C19.0514 4.44024 19.0774 3.80624 18.6014 3.22124C18.1254 2.63524 17.5564 2.53924 16.4174 2.34724Z" fill="#923CF6"/>
</g>
</g>
<defs>
<clipPath id="clip0_23_1395">
<rect width="24" height="24" fill="white" transform="translate(0.0400391)"/>
</clipPath>
<clipPath id="clip1_23_1395">
<rect width="24" height="24" fill="white" transform="translate(0.0400391)"/>
</clipPath>
</defs>
</svg>
