<svg width="3284" height="930" viewBox="0 0 3284 930" fill="none" xmlns="http://www.w3.org/2000/svg">
<path d="M879.213 0.00463867H-0.000732422V930.005H879.213V0.00463867Z" fill="#FFE01B"/>
<path d="M468.549 571.593H218.325V512.591C218.431 428.058 250.224 347.02 306.732 287.245C363.24 227.47 439.852 193.837 519.768 193.721V311.636C479.14 311.702 439.598 325.514 406.923 351.052C374.247 376.59 350.152 412.514 338.159 453.574H468.549V571.593Z" fill="#A04EF6"/>
<path d="M443.03 453.604C443.03 453.604 379.824 515.195 392.562 552.426C411.545 557.427 468.438 453.604 468.438 453.604H443.03Z" fill="#7F37CA"/>
<path d="M663.592 379.994V497.91C604.38 498 547.619 522.926 505.758 567.221C463.897 611.517 440.353 671.566 440.291 734.198H328.814C328.91 640.303 364.209 550.283 426.969 483.881C489.729 417.479 574.825 380.119 663.592 379.994Z" fill="#A04EF6"/>
<path d="M1010.41 367.752H1057.14V263.604H1131.57V224.417H1057.14V161.163H1154.26V121.27H1010.41V367.752ZM1372.6 269.959C1373.18 256.567 1371.12 243.194 1366.54 230.69C1361.97 218.187 1354.99 206.826 1346.05 197.33C1337.1 187.834 1326.38 180.41 1314.58 175.531C1302.77 170.652 1290.14 168.424 1277.48 168.989C1264.81 168.424 1252.18 170.652 1240.37 175.531C1228.57 180.41 1217.85 187.834 1208.91 197.33C1199.96 206.826 1192.98 218.187 1188.41 230.69C1183.84 243.194 1181.78 256.567 1182.35 269.959C1181.66 283.257 1183.59 296.562 1188.03 309.025C1192.47 321.488 1199.32 332.833 1208.14 342.336C1216.96 351.839 1227.56 359.29 1239.26 364.214C1250.96 369.137 1263.5 371.424 1276.09 370.929C1288.82 371.531 1301.54 369.34 1313.43 364.494C1325.33 359.647 1336.15 352.25 1345.22 342.768C1354.28 333.285 1361.39 321.922 1366.1 309.392C1370.82 296.862 1373.03 283.436 1372.6 269.959ZM1229.75 269.959C1229.75 230.771 1252.11 212.06 1276.81 212.06C1301.51 212.06 1324.48 230.771 1324.48 269.959C1324.48 308.794 1300.84 327.858 1276.09 327.858C1251.05 327.858 1229.69 308.794 1229.69 269.959H1229.75ZM1460.38 270.312C1460.38 232.537 1477.07 221.239 1504.77 221.239H1517.12V169.342C1505.73 169.042 1494.46 171.958 1484.49 177.791C1474.52 183.624 1466.19 192.163 1460.38 202.528V172.108H1413.65V367.752H1460.38V270.312ZM1588.82 367.752H1639.61L1673.26 231.124L1706.97 367.752H1757.37L1811.44 172.108H1766.72L1734.01 320.679L1699.24 172.108H1649.9L1614.58 321.15L1581.81 172.108H1534.42L1588.82 367.752ZM1831.52 269.194C1831.52 330.27 1868.9 370.87 1915.63 370.87C1927.54 371.285 1939.37 368.606 1950.07 363.067C1960.78 357.528 1970.04 349.297 1977.04 339.096V367.752H2024.1V172.108H1976.99V200.057C1969.93 190.049 1960.69 181.996 1950.06 176.586C1939.42 171.176 1927.7 168.569 1915.91 168.989C1868.85 168.989 1831.52 208.177 1831.52 269.194ZM1977.04 269.9C1977.68 277.151 1976.89 284.463 1974.72 291.375C1972.55 298.287 1969.05 304.648 1964.44 310.056C1959.83 315.464 1954.21 319.801 1947.94 322.794C1941.66 325.788 1934.86 327.372 1927.98 327.446C1921.1 327.209 1914.34 325.489 1908.11 322.39C1901.89 319.291 1896.32 314.879 1891.77 309.424C1887.21 303.97 1883.75 297.588 1881.61 290.67C1879.47 283.752 1878.68 276.444 1879.31 269.194C1878.69 262.018 1879.5 254.786 1881.66 247.953C1883.82 241.121 1887.3 234.836 1891.87 229.496C1896.44 224.156 1902.01 219.876 1908.23 216.926C1914.44 213.975 1921.17 212.419 1927.98 212.354C1934.86 212.436 1941.66 214.028 1947.93 217.028C1954.21 220.028 1959.82 224.373 1964.43 229.786C1969.03 235.2 1972.53 241.565 1974.69 248.48C1976.85 255.395 1977.63 262.708 1976.99 269.959L1977.04 269.9ZM2123.23 270.253C2123.23 232.478 2139.92 221.18 2167.62 221.18H2179.97V169.283C2168.58 168.983 2157.32 171.899 2147.34 177.732C2137.37 183.565 2129.05 192.104 2123.23 202.469V172.108H2076.5V367.752H2123.23V270.253ZM2205.95 269.194C2205.95 330.27 2243.33 370.87 2290.39 370.87C2302.26 371.42 2314.07 368.759 2324.7 363.137C2335.33 357.516 2344.43 349.12 2351.14 338.743V367.752H2398.53V106.501H2351.14V199.351C2343.93 189.744 2334.73 182.012 2324.26 176.749C2313.79 171.486 2302.32 168.831 2290.72 168.989C2243.33 168.989 2205.95 208.177 2205.95 269.194ZM2351.47 269.9C2352.12 277.156 2351.33 284.475 2349.17 291.393C2347 298.312 2343.5 304.68 2338.89 310.094C2334.28 315.509 2328.66 319.852 2322.38 322.849C2316.1 325.846 2309.29 327.431 2302.41 327.505C2295.53 327.268 2288.77 325.548 2282.54 322.449C2276.31 319.35 2270.75 314.938 2266.19 309.483C2261.63 304.029 2258.18 297.647 2256.04 290.729C2253.89 283.811 2253.11 276.503 2253.73 269.253C2253.12 262.077 2253.92 254.845 2256.08 248.012C2258.25 241.18 2261.72 234.895 2266.3 229.555C2270.87 224.215 2276.44 219.935 2282.65 216.984C2288.87 214.034 2295.59 212.478 2302.41 212.413C2309.29 212.488 2316.08 214.072 2322.36 217.065C2328.64 220.058 2334.26 224.396 2338.87 229.804C2343.48 235.212 2346.98 241.573 2349.15 248.484C2351.32 255.396 2352.11 262.708 2351.47 269.959V269.9ZM2438.91 269.9C2438.91 331.329 2476.96 370.87 2530.37 370.87C2550.27 372.095 2569.94 365.823 2585.88 353.166C2601.83 340.51 2613.02 322.288 2617.48 301.733H2567.08C2564.81 310.061 2559.87 317.294 2553.11 322.19C2546.35 327.086 2538.19 329.34 2530.03 328.564C2504 328.564 2486.64 308.088 2486.64 269.959C2486.64 231.831 2504 211.001 2530.03 211.001C2538.2 210.455 2546.3 212.843 2553.03 217.777C2559.75 222.711 2564.7 229.902 2567.08 238.185H2617.48C2607.46 194.408 2576.42 169.048 2530.37 169.048C2476.96 168.989 2438.91 208.53 2438.91 269.959V269.9ZM2837.09 269.9C2837.67 256.508 2835.61 243.135 2831.04 230.632C2826.47 218.128 2819.49 206.767 2810.54 197.271C2801.59 187.775 2790.88 180.351 2779.07 175.472C2767.27 170.593 2754.63 168.365 2741.97 168.93C2729.31 168.365 2716.67 170.593 2704.87 175.472C2693.06 180.351 2682.35 187.775 2673.4 197.271C2664.46 206.767 2657.47 218.128 2652.9 230.632C2648.33 243.135 2646.27 256.508 2646.85 269.9C2646.14 283.208 2648.07 296.525 2652.51 308.999C2656.95 321.473 2663.81 332.828 2672.63 342.339C2681.46 351.849 2692.07 359.304 2703.78 364.227C2715.49 369.151 2728.04 371.433 2740.64 370.929C2753.37 371.523 2766.08 369.325 2777.97 364.475C2789.86 359.625 2800.67 352.227 2809.73 342.745C2818.79 333.263 2825.89 321.903 2830.6 309.377C2835.31 296.852 2837.52 283.431 2837.09 269.959V269.9ZM2694.24 269.9C2694.24 230.713 2716.6 212.001 2741.3 212.001C2766 212.001 2789.03 230.713 2789.03 269.9C2789.03 308.735 2765.39 327.799 2740.64 327.799C2715.6 327.858 2694.24 308.794 2694.24 269.959V269.9ZM2866.19 269.194C2866.19 330.27 2903.57 370.87 2950.63 370.87C2962.5 371.42 2974.31 368.759 2984.94 363.137C2995.57 357.516 3004.67 349.12 3011.37 338.743V367.752H3058.77V106.501H3011.37V199.351C3004.17 189.744 2994.97 182.012 2984.5 176.749C2974.03 171.486 2962.55 168.831 2950.96 168.989C2903.51 168.989 2866.19 208.177 2866.19 269.194ZM3011.71 269.9C3012.35 277.151 3011.56 284.463 3009.39 291.375C3007.22 298.287 3003.72 304.648 2999.11 310.056C2994.5 315.464 2988.88 319.801 2982.6 322.794C2976.32 325.788 2969.53 327.372 2962.64 327.446C2955.76 327.209 2949 325.489 2942.78 322.39C2936.55 319.291 2930.99 314.879 2926.43 309.424C2921.87 303.97 2918.42 297.588 2916.27 290.67C2914.13 283.752 2913.35 276.444 2913.97 269.194C2913.36 262.018 2914.16 254.786 2916.32 247.953C2918.48 241.121 2921.96 234.836 2926.54 229.496C2931.11 224.156 2936.68 219.876 2942.89 216.926C2949.11 213.975 2955.83 212.419 2962.64 212.354C2969.53 212.436 2976.32 214.028 2982.6 217.028C2988.87 220.028 2994.49 224.373 2999.09 229.786C3003.7 235.2 3007.19 241.565 3009.35 248.48C3011.52 255.395 3012.3 262.708 3011.65 269.959L3011.71 269.9ZM3190.6 209.589C3196.12 209.17 3201.66 209.934 3206.89 211.836C3212.13 213.737 3216.94 216.737 3221.05 220.655C3225.16 224.572 3228.48 229.328 3230.81 234.635C3233.14 239.943 3234.43 245.694 3234.6 251.542H3146.82C3147.66 239.963 3152.66 229.162 3160.79 221.359C3168.92 213.556 3179.57 209.345 3190.55 209.589H3190.6ZM3278.38 306.322H3227.98C3224.81 313.774 3219.56 320.027 3212.94 324.252C3206.33 328.476 3198.65 330.473 3190.94 329.976C3185.21 330.134 3179.5 329.087 3174.16 326.894C3168.82 324.701 3163.94 321.406 3159.81 317.202C3155.68 312.997 3152.38 307.967 3150.1 302.402C3147.82 296.837 3146.62 290.85 3146.55 284.787H3281.72C3282.68 278.464 3283.15 272.068 3283.11 265.664C3283.78 252.805 3281.88 239.942 3277.54 227.91C3273.2 215.877 3266.52 204.945 3257.93 195.822C3249.34 186.7 3239.02 179.591 3227.67 174.958C3216.31 170.325 3204.15 168.271 3191.99 168.93C3137.26 168.93 3099.21 208.118 3099.21 269.9C3099.21 331.329 3138.26 370.87 3191.99 370.87C3211.13 371.826 3230.01 365.993 3245.65 354.299C3261.29 342.605 3272.79 325.719 3278.33 306.322H3278.38Z" fill="white"/>
<path d="M1137.5 573.575V597.523H1079.37V799.139H1051.56V597.523H993.097V573.575H1137.5ZM1330.81 703.671C1330.79 709.616 1330.49 715.557 1329.89 721.47H1195.94C1196.04 729.141 1197.6 736.712 1200.51 743.737C1203.43 750.761 1207.65 757.095 1212.92 762.364C1223.18 772.158 1236.59 777.422 1250.4 777.074C1261.07 777.51 1271.6 774.425 1280.54 768.248C1288.48 762.474 1294.44 754.127 1297.52 744.462H1327.5C1323.24 761.146 1313.74 775.804 1300.58 786.032C1285.99 797.098 1268.34 802.741 1250.4 802.081C1235.48 802.346 1220.76 798.439 1207.72 790.754C1195.18 783.211 1184.94 772.04 1178.2 758.554C1170.83 743.639 1167.15 726.996 1167.49 710.173C1167.14 693.437 1170.71 676.87 1177.89 661.953C1184.47 648.534 1194.62 637.45 1207.09 630.076C1220.36 622.441 1235.28 618.593 1250.39 618.911C1265.13 618.603 1279.69 622.397 1292.61 629.914C1304.57 636.952 1314.38 647.448 1320.91 660.173C1327.66 673.543 1331.09 688.513 1330.86 703.671H1330.81ZM1302.05 697.522C1302.31 687.361 1299.87 677.326 1295.01 668.558C1290.45 660.591 1283.81 654.185 1275.89 650.111C1267.55 645.837 1258.39 643.676 1249.12 643.801C1235.85 643.481 1222.98 648.581 1213.17 658.04C1202.9 668.383 1196.81 682.534 1196.19 697.522H1302.05ZM1363.24 710.143C1362.87 693.458 1366.45 676.94 1373.64 662.085C1380.26 648.755 1390.33 637.698 1402.68 630.209C1415.59 622.5 1430.23 618.589 1445.05 618.882C1463.17 618.135 1481.02 623.706 1495.85 634.739C1509.36 645.586 1518.74 661.205 1522.28 678.752H1492.41C1489.84 668.426 1483.94 659.379 1475.72 653.186C1466.67 646.68 1455.9 643.392 1444.97 643.801C1437.74 643.52 1430.54 644.926 1423.88 647.918C1417.22 650.91 1411.26 655.416 1406.43 661.114C1395.91 674.939 1390.67 692.432 1391.75 710.143C1390.66 728.004 1395.9 745.654 1406.43 759.657C1411.25 765.39 1417.2 769.924 1423.86 772.935C1430.53 775.947 1437.74 777.36 1444.98 777.074C1455.83 777.499 1466.52 774.331 1475.58 768.013C1483.89 761.743 1489.85 752.576 1492.41 742.123H1522.39C1518.4 759.486 1508.9 774.873 1495.47 785.709C1480.85 797.002 1463.07 802.769 1444.98 802.081C1430.18 802.352 1415.57 798.431 1402.68 790.725C1390.32 783.195 1380.26 772.077 1373.7 758.686C1366.49 743.662 1362.92 726.984 1363.3 710.143H1363.24ZM1648.69 618.558C1660.61 618.374 1672.38 621.321 1682.96 627.134C1693.24 632.941 1701.61 641.912 1706.97 652.862C1713.11 665.796 1716.11 680.143 1715.69 694.609V799.139H1688.16V698.816C1689.12 684.074 1684.63 669.513 1675.64 658.202C1671.19 653.427 1665.84 649.703 1659.94 647.276C1654.03 644.85 1647.7 643.775 1641.37 644.124C1634.89 643.794 1628.42 644.922 1622.38 647.432C1616.34 649.942 1610.88 653.778 1606.34 658.687C1596.98 670.503 1592.32 685.702 1593.34 701.082V799.139H1565.53V559.659H1593.34V647.037C1598.92 637.904 1606.82 630.615 1616.13 626.001C1626.32 620.919 1637.48 618.373 1648.75 618.558H1648.69ZM1826.84 802.081C1814.98 802.285 1803.22 799.917 1792.26 795.123C1782.73 791.021 1774.39 784.322 1768.09 775.706C1762.2 767.409 1758.81 757.429 1758.36 747.065H1787.12C1787.48 751.366 1788.72 755.531 1790.76 759.275C1792.79 763.018 1795.57 766.25 1798.9 768.748C1807 774.699 1816.73 777.657 1826.59 777.162C1835.47 777.666 1844.26 775.049 1851.59 769.719C1854.44 767.609 1856.77 764.799 1858.37 761.53C1859.96 758.261 1860.79 754.63 1860.77 750.949C1860.9 747.377 1860.05 743.841 1858.32 740.768C1856.6 737.695 1854.06 735.218 1851.03 733.635C1841.38 728.674 1831.22 724.927 1820.74 722.47C1810.37 719.742 1800.2 716.227 1790.3 711.952C1782.49 708.421 1775.57 702.988 1770.11 696.095C1764.26 688.241 1761.3 678.412 1761.77 668.425C1761.73 659.468 1764.41 650.736 1769.41 643.506C1774.96 635.579 1782.42 629.38 1791.01 625.56C1801.16 620.976 1812.11 618.715 1823.14 618.926C1839.32 618.115 1855.25 623.389 1868.11 633.813C1873.79 638.788 1878.37 645.015 1881.54 652.057C1884.72 659.1 1886.4 666.789 1886.47 674.589H1858.65C1858.49 670.289 1857.46 666.076 1855.64 662.226C1853.82 658.377 1851.25 654.98 1848.1 652.259C1840.69 646.312 1831.53 643.331 1822.25 643.845C1813.81 643.38 1805.46 645.76 1798.38 650.641C1795.61 652.585 1793.35 655.234 1791.8 658.344C1790.25 661.453 1789.46 664.925 1789.51 668.44C1789.43 671.1 1789.86 673.75 1790.78 676.226C1791.7 678.703 1793.09 680.954 1794.86 682.841C1798.71 686.808 1803.3 689.893 1808.33 691.903C1815.69 694.84 1823.2 697.378 1830.81 699.508C1840.8 702.241 1850.61 705.646 1860.18 709.702C1867.71 713.012 1874.38 718.171 1879.65 724.75C1885.28 732.155 1888.24 741.425 1888.03 750.919C1888.12 760.287 1885.45 769.454 1880.38 777.133C1874.92 785.209 1867.46 791.536 1858.82 795.417C1848.73 800.025 1837.82 802.297 1826.84 802.081ZM1967.29 646.154V750.596C1966.98 753.856 1967.28 757.149 1968.17 760.287C1969.06 763.425 1970.53 766.345 1972.5 768.88C1977.67 773.014 1984.13 774.922 1990.57 774.22H2011.07V799.139H1986.04C1973.43 800.191 1960.92 796.143 1951.02 787.812C1946.75 782.805 1943.5 776.908 1941.5 770.5C1939.5 764.092 1938.78 757.313 1939.4 750.596V646.066H1917.67V621.794H1939.4V577.135H1967.21V621.794H2010.96V646.066L1967.29 646.154ZM2199.54 621.883V799.139H2171.72V772.926C2166.33 782.06 2158.62 789.406 2149.47 794.123C2139.74 799.255 2128.99 801.862 2118.11 801.728C2105.9 801.939 2093.82 798.995 2082.93 793.152C2072.47 787.377 2063.89 778.414 2058.3 767.424C2051.96 754.556 2048.85 740.181 2049.27 725.677V621.794H2076.81V721.823C2075.88 736.462 2080.37 750.91 2089.33 762.114C2093.77 766.889 2099.13 770.613 2105.03 773.039C2110.94 775.466 2117.26 776.54 2123.59 776.191C2130.1 776.552 2136.6 775.44 2142.67 772.928C2148.74 770.417 2154.23 766.564 2158.78 761.628C2168.05 749.766 2172.65 734.586 2171.63 719.234V621.824L2199.54 621.883ZM2242.37 709.908C2242.03 693.328 2245.6 676.921 2252.77 662.174C2259.3 648.926 2269.21 637.882 2281.38 630.297C2293.77 622.674 2307.89 618.758 2322.22 618.97C2334.92 618.877 2347.44 622.16 2358.63 628.517C2369.19 634.223 2378.08 642.869 2384.33 653.524V559.674H2412.48V799.139H2384.33V765.806C2378.52 776.656 2370.03 785.635 2359.77 791.784C2348.25 798.815 2335.13 802.376 2321.83 802.081C2307.56 802.258 2293.52 798.224 2281.3 790.431C2269.07 782.563 2259.16 771.244 2252.69 757.745C2245.57 742.909 2242 726.454 2242.29 709.819L2242.37 709.908ZM2384.33 710.231C2384.61 698.085 2381.98 686.063 2376.68 675.28C2371.96 665.773 2364.8 657.866 2356.03 652.465C2347.33 647.171 2337.46 644.434 2327.42 644.536C2317.46 644.417 2307.64 647.097 2298.97 652.303C2290.25 657.651 2283.14 665.506 2278.47 674.957C2273.18 685.739 2270.55 697.762 2270.82 709.908C2270.54 722.21 2273.17 734.392 2278.47 745.344C2283.12 754.847 2290.19 762.782 2298.89 768.248C2307.52 773.554 2317.35 776.293 2327.34 776.177C2337.37 776.279 2347.25 773.541 2355.95 768.248C2364.75 762.814 2371.91 754.845 2376.6 745.271C2381.88 734.421 2384.51 722.344 2384.25 710.143L2384.33 710.231ZM2480.09 593.08C2477.59 593.126 2475.1 592.627 2472.78 591.615C2470.47 590.603 2468.37 589.099 2466.63 587.196C2464.83 585.352 2463.41 583.136 2462.45 580.687C2461.5 578.238 2461.03 575.607 2461.07 572.957C2461.03 570.307 2461.5 567.676 2462.45 565.227C2463.41 562.778 2464.83 560.562 2466.63 558.718C2468.37 556.815 2470.47 555.311 2472.78 554.299C2475.1 553.287 2477.59 552.788 2480.09 552.834C2482.53 552.8 2484.94 553.307 2487.18 554.32C2489.42 555.333 2491.44 556.831 2493.1 558.718C2494.84 560.591 2496.22 562.817 2497.14 565.263C2498.06 567.709 2498.5 570.325 2498.45 572.957C2498.5 575.589 2498.06 578.205 2497.14 580.651C2496.22 583.097 2494.84 585.323 2493.1 587.196C2491.42 589.078 2489.39 590.566 2487.13 591.564C2484.88 592.563 2482.45 593.049 2480.01 592.992L2480.09 593.08ZM2493.55 621.883V799.139H2465.74V621.794L2493.55 621.883ZM2620.13 802.081C2605.22 802.292 2590.51 798.389 2577.45 790.754C2564.76 783.263 2554.36 772.091 2547.47 758.554C2540.01 743.671 2536.27 727.016 2536.61 710.173C2536.28 693.4 2540.12 676.829 2547.74 662.115C2554.8 648.596 2565.36 637.483 2578.18 630.076C2591.41 622.534 2606.25 618.691 2621.29 618.911C2636.32 618.691 2651.16 622.534 2664.4 630.076C2677.19 637.453 2687.74 648.503 2694.84 661.953C2702.5 676.71 2706.34 693.344 2705.97 710.173C2706.31 727.096 2702.34 743.805 2694.49 758.554C2687.17 772.131 2676.42 783.281 2663.44 790.754C2650.15 798.357 2635.24 802.255 2620.13 802.081ZM2620.13 776.191C2629.96 776.237 2639.63 773.678 2648.28 768.748C2657.25 763.596 2664.65 755.838 2669.59 746.389C2675.27 735.276 2678.07 722.77 2677.69 710.143C2678.06 697.536 2675.32 685.044 2669.74 673.898C2664.96 664.532 2657.71 656.832 2648.88 651.729C2640.33 646.882 2630.77 644.379 2621.07 644.448C2611.3 644.334 2601.67 646.839 2593.07 651.729C2584.37 656.836 2577.29 664.548 2572.73 673.898C2567.34 685.11 2564.71 697.574 2565.08 710.143C2564.7 722.799 2567.27 735.36 2572.57 746.712C2577.03 756.04 2584 763.756 2592.61 768.88C2601.05 773.753 2610.52 776.26 2620.13 776.162V776.191Z" fill="white"/>
</svg>
