<svg width="1612" height="312" viewBox="0 0 1612 312" fill="none" xmlns="http://www.w3.org/2000/svg">
<path d="M640.523 143.481H376.115C378.528 123.612 386.864 104.861 400.099 89.5358C413.333 74.2101 430.889 62.9784 450.605 57.2217C470.322 51.4651 491.34 51.4346 511.074 57.1343C530.808 62.8341 548.397 74.0145 561.678 89.3019L600.137 51.7159C579.221 29.0391 551.915 12.8304 521.606 5.09996C491.297 -2.63043 459.319 -1.54203 429.641 8.23074C399.963 18.0035 373.891 36.03 354.66 60.0736C335.428 84.1173 323.885 113.119 321.461 143.481H320.54C318.116 113.119 306.572 84.1173 287.34 60.0736C268.109 36.03 242.037 18.0035 212.359 8.23074C182.681 -1.54203 150.703 -2.63043 120.394 5.09996C90.0851 12.8304 62.7788 29.0391 41.8633 51.7159L80.3216 89.3019C93.6029 74.0145 111.192 62.8341 130.926 57.1343C150.66 51.4346 171.678 51.4651 191.395 57.2217C211.111 62.9784 228.666 74.2101 241.901 89.5358C255.136 104.861 263.472 123.612 265.886 143.481H1.46583C1.15527 147.447 0.99648 151.452 0.989258 155.495C0.993523 193.633 15.4174 230.439 41.519 258.918C67.6206 287.396 103.58 305.561 142.56 309.957C181.541 314.354 220.825 304.676 252.944 282.765C285.063 260.853 307.778 228.236 316.77 191.113H325.198C334.151 228.271 356.853 260.933 388.981 282.878C421.109 304.823 460.419 314.518 499.426 310.118C538.434 305.718 574.414 287.531 600.516 259.018C626.619 230.505 641.02 193.66 640.978 155.495C640.993 151.452 640.841 147.447 640.523 143.481ZM160.997 258.126C139.38 258.128 118.283 251.683 100.555 239.661C82.8265 227.64 69.3208 210.62 61.8615 190.902H260.111C252.652 210.616 239.149 227.633 221.426 239.654C203.702 251.675 182.61 258.122 160.997 258.126ZM480.992 258.126C459.373 258.128 438.274 251.684 420.544 239.663C402.814 227.641 389.307 210.621 381.845 190.902H580.095C572.637 210.613 559.138 227.626 541.418 239.647C523.699 251.668 502.601 258.118 480.992 258.126Z" fill="black"/>
<path d="M765.6 138.6C763.28 133.72 759.92 129.96 755.52 127.32C751.12 124.6 746 123.24 740.16 123.24C734.32 123.24 729.04 124.6 724.32 127.32C719.68 129.96 716 133.8 713.28 138.84C710.64 143.8 709.32 149.56 709.32 156.12C709.32 162.68 710.64 168.44 713.28 173.4C716 178.36 719.68 182.2 724.32 184.92C729.04 187.56 734.32 188.88 740.16 188.88C748.32 188.88 755.04 186.44 760.32 181.56C765.6 176.68 768.68 170.08 769.56 161.76H736.2V152.88H781.2V161.28C780.56 168.16 778.4 174.48 774.72 180.24C771.04 185.92 766.2 190.44 760.2 193.8C754.2 197.08 747.52 198.72 740.16 198.72C732.4 198.72 725.32 196.92 718.92 193.32C712.52 189.64 707.44 184.56 703.68 178.08C700 171.6 698.16 164.28 698.16 156.12C698.16 147.96 700 140.64 703.68 134.16C707.44 127.6 712.52 122.52 718.92 118.92C725.32 115.24 732.4 113.4 740.16 113.4C749.04 113.4 756.88 115.6 763.68 120C770.56 124.4 775.56 130.6 778.68 138.6H765.6ZM855.638 162.6C855.638 164.68 855.518 166.88 855.278 169.2H802.718C803.118 175.68 805.318 180.76 809.318 184.44C813.398 188.04 818.318 189.84 824.078 189.84C828.798 189.84 832.718 188.76 835.838 186.6C839.038 184.36 841.278 181.4 842.558 177.72H854.318C852.558 184.04 849.038 189.2 843.758 193.2C838.478 197.12 831.918 199.08 824.078 199.08C817.838 199.08 812.238 197.68 807.278 194.88C802.398 192.08 798.558 188.12 795.758 183C792.958 177.8 791.558 171.8 791.558 165C791.558 158.2 792.918 152.24 795.638 147.12C798.358 142 802.158 138.08 807.038 135.36C811.998 132.56 817.678 131.16 824.078 131.16C830.318 131.16 835.838 132.52 840.638 135.24C845.438 137.96 849.118 141.72 851.678 146.52C854.318 151.24 855.638 156.6 855.638 162.6ZM844.358 160.32C844.358 156.16 843.438 152.6 841.598 149.64C839.758 146.6 837.238 144.32 834.038 142.8C830.918 141.2 827.438 140.4 823.598 140.4C818.078 140.4 813.358 142.16 809.438 145.68C805.598 149.2 803.398 154.08 802.838 160.32H844.358ZM930.053 162.6C930.053 164.68 929.933 166.88 929.693 169.2H877.133C877.533 175.68 879.733 180.76 883.733 184.44C887.813 188.04 892.733 189.84 898.493 189.84C903.213 189.84 907.133 188.76 910.253 186.6C913.453 184.36 915.693 181.4 916.973 177.72H928.733C926.973 184.04 923.453 189.2 918.173 193.2C912.893 197.12 906.333 199.08 898.493 199.08C892.253 199.08 886.653 197.68 881.693 194.88C876.813 192.08 872.973 188.12 870.173 183C867.373 177.8 865.973 171.8 865.973 165C865.973 158.2 867.333 152.24 870.053 147.12C872.773 142 876.573 138.08 881.453 135.36C886.413 132.56 892.093 131.16 898.493 131.16C904.733 131.16 910.253 132.52 915.053 135.24C919.853 137.96 923.533 141.72 926.093 146.52C928.733 151.24 930.053 156.6 930.053 162.6ZM918.773 160.32C918.773 156.16 917.853 152.6 916.013 149.64C914.173 146.6 911.653 144.32 908.453 142.8C905.333 141.2 901.853 140.4 898.013 140.4C892.493 140.4 887.773 142.16 883.853 145.68C880.013 149.2 877.813 154.08 877.253 160.32H918.773ZM981.187 198L955.387 168.96V198H944.467V109.2H955.387V161.4L980.707 132.24H995.947L964.987 165L996.067 198H981.187ZM1029.5 199.08C1024.46 199.08 1019.94 198.24 1015.94 196.56C1011.94 194.8 1008.78 192.4 1006.46 189.36C1004.14 186.24 1002.86 182.68 1002.62 178.68H1013.9C1014.22 181.96 1015.74 184.64 1018.46 186.72C1021.26 188.8 1024.9 189.84 1029.38 189.84C1033.54 189.84 1036.82 188.92 1039.22 187.08C1041.62 185.24 1042.82 182.92 1042.82 180.12C1042.82 177.24 1041.54 175.12 1038.98 173.76C1036.42 172.32 1032.46 170.92 1027.1 169.56C1022.22 168.28 1018.22 167 1015.1 165.72C1012.06 164.36 1009.42 162.4 1007.18 159.84C1005.02 157.2 1003.94 153.76 1003.94 149.52C1003.94 146.16 1004.94 143.08 1006.94 140.28C1008.94 137.48 1011.78 135.28 1015.46 133.68C1019.14 132 1023.34 131.16 1028.06 131.16C1035.34 131.16 1041.22 133 1045.7 136.68C1050.18 140.36 1052.58 145.4 1052.9 151.8H1041.98C1041.74 148.36 1040.34 145.6 1037.78 143.52C1035.3 141.44 1031.94 140.4 1027.7 140.4C1023.78 140.4 1020.66 141.24 1018.34 142.92C1016.02 144.6 1014.86 146.8 1014.86 149.52C1014.86 151.68 1015.54 153.48 1016.9 154.92C1018.34 156.28 1020.1 157.4 1022.18 158.28C1024.34 159.08 1027.3 160 1031.06 161.04C1035.78 162.32 1039.62 163.6 1042.58 164.88C1045.54 166.08 1048.06 167.92 1050.14 170.4C1052.3 172.88 1053.42 176.12 1053.5 180.12C1053.5 183.72 1052.5 186.96 1050.5 189.84C1048.5 192.72 1045.66 195 1041.98 196.68C1038.38 198.28 1034.22 199.08 1029.5 199.08ZM1095.68 141.24H1081.88V198H1070.96V141.24H1062.44V132.24H1070.96V127.56C1070.96 120.2 1072.84 114.84 1076.6 111.48C1080.44 108.04 1086.56 106.32 1094.96 106.32V115.44C1090.16 115.44 1086.76 116.4 1084.76 118.32C1082.84 120.16 1081.88 123.24 1081.88 127.56V132.24H1095.68V141.24ZM1137.09 199.08C1130.93 199.08 1125.33 197.68 1120.29 194.88C1115.33 192.08 1111.41 188.12 1108.53 183C1105.73 177.8 1104.33 171.8 1104.33 165C1104.33 158.28 1105.77 152.36 1108.65 147.24C1111.61 142.04 1115.61 138.08 1120.65 135.36C1125.69 132.56 1131.33 131.16 1137.57 131.16C1143.81 131.16 1149.45 132.56 1154.49 135.36C1159.53 138.08 1163.49 142 1166.37 147.12C1169.33 152.24 1170.81 158.2 1170.81 165C1170.81 171.8 1169.29 177.8 1166.25 183C1163.29 188.12 1159.25 192.08 1154.13 194.88C1149.01 197.68 1143.33 199.08 1137.09 199.08ZM1137.09 189.48C1141.01 189.48 1144.69 188.56 1148.13 186.72C1151.57 184.88 1154.33 182.12 1156.41 178.44C1158.57 174.76 1159.65 170.28 1159.65 165C1159.65 159.72 1158.61 155.24 1156.53 151.56C1154.45 147.88 1151.73 145.16 1148.37 143.4C1145.01 141.56 1141.37 140.64 1137.45 140.64C1133.45 140.64 1129.77 141.56 1126.41 143.4C1123.13 145.16 1120.49 147.88 1118.49 151.56C1116.49 155.24 1115.49 159.72 1115.49 165C1115.49 170.36 1116.45 174.88 1118.37 178.56C1120.37 182.24 1123.01 185 1126.29 186.84C1129.57 188.6 1133.17 189.48 1137.09 189.48ZM1196.09 142.92C1198.01 139.16 1200.73 136.24 1204.25 134.16C1207.85 132.08 1212.21 131.04 1217.33 131.04V142.32H1214.45C1202.21 142.32 1196.09 148.96 1196.09 162.24V198H1185.17V132.24H1196.09V142.92ZM1293.3 138.6C1290.98 133.72 1287.62 129.96 1283.22 127.32C1278.82 124.6 1273.7 123.24 1267.86 123.24C1262.02 123.24 1256.74 124.6 1252.02 127.32C1247.38 129.96 1243.7 133.8 1240.98 138.84C1238.34 143.8 1237.02 149.56 1237.02 156.12C1237.02 162.68 1238.34 168.44 1240.98 173.4C1243.7 178.36 1247.38 182.2 1252.02 184.92C1256.74 187.56 1262.02 188.88 1267.86 188.88C1276.02 188.88 1282.74 186.44 1288.02 181.56C1293.3 176.68 1296.38 170.08 1297.26 161.76H1263.9V152.88H1308.9V161.28C1308.26 168.16 1306.1 174.48 1302.42 180.24C1298.74 185.92 1293.9 190.44 1287.9 193.8C1281.9 197.08 1275.22 198.72 1267.86 198.72C1260.1 198.72 1253.02 196.92 1246.62 193.32C1240.22 189.64 1235.14 184.56 1231.38 178.08C1227.7 171.6 1225.86 164.28 1225.86 156.12C1225.86 147.96 1227.7 140.64 1231.38 134.16C1235.14 127.6 1240.22 122.52 1246.62 118.92C1253.02 115.24 1260.1 113.4 1267.86 113.4C1276.74 113.4 1284.58 115.6 1291.38 120C1298.26 124.4 1303.26 130.6 1306.38 138.6H1293.3ZM1383.33 162.6C1383.33 164.68 1383.21 166.88 1382.97 169.2H1330.41C1330.81 175.68 1333.01 180.76 1337.01 184.44C1341.09 188.04 1346.01 189.84 1351.77 189.84C1356.49 189.84 1360.41 188.76 1363.53 186.6C1366.73 184.36 1368.97 181.4 1370.25 177.72H1382.01C1380.25 184.04 1376.73 189.2 1371.45 193.2C1366.17 197.12 1359.61 199.08 1351.77 199.08C1345.53 199.08 1339.93 197.68 1334.97 194.88C1330.09 192.08 1326.25 188.12 1323.45 183C1320.65 177.8 1319.25 171.8 1319.25 165C1319.25 158.2 1320.61 152.24 1323.33 147.12C1326.05 142 1329.85 138.08 1334.73 135.36C1339.69 132.56 1345.37 131.16 1351.77 131.16C1358.01 131.16 1363.53 132.52 1368.33 135.24C1373.13 137.96 1376.81 141.72 1379.37 146.52C1382.01 151.24 1383.33 156.6 1383.33 162.6ZM1372.05 160.32C1372.05 156.16 1371.13 152.6 1369.29 149.64C1367.45 146.6 1364.93 144.32 1361.73 142.8C1358.61 141.2 1355.13 140.4 1351.29 140.4C1345.77 140.4 1341.05 142.16 1337.13 145.68C1333.29 149.2 1331.09 154.08 1330.53 160.32H1372.05ZM1457.75 162.6C1457.75 164.68 1457.63 166.88 1457.39 169.2H1404.83C1405.23 175.68 1407.43 180.76 1411.43 184.44C1415.51 188.04 1420.43 189.84 1426.19 189.84C1430.91 189.84 1434.83 188.76 1437.95 186.6C1441.15 184.36 1443.39 181.4 1444.67 177.72H1456.43C1454.67 184.04 1451.15 189.2 1445.87 193.2C1440.59 197.12 1434.03 199.08 1426.19 199.08C1419.95 199.08 1414.35 197.68 1409.39 194.88C1404.51 192.08 1400.67 188.12 1397.87 183C1395.07 177.8 1393.67 171.8 1393.67 165C1393.67 158.2 1395.03 152.24 1397.75 147.12C1400.47 142 1404.27 138.08 1409.15 135.36C1414.11 132.56 1419.79 131.16 1426.19 131.16C1432.43 131.16 1437.95 132.52 1442.75 135.24C1447.55 137.96 1451.23 141.72 1453.79 146.52C1456.43 151.24 1457.75 156.6 1457.75 162.6ZM1446.47 160.32C1446.47 156.16 1445.55 152.6 1443.71 149.64C1441.87 146.6 1439.35 144.32 1436.15 142.8C1433.03 141.2 1429.55 140.4 1425.71 140.4C1420.19 140.4 1415.47 142.16 1411.55 145.68C1407.71 149.2 1405.51 154.08 1404.95 160.32H1446.47ZM1508.88 198L1483.08 168.96V198H1472.16V109.2H1483.08V161.4L1508.4 132.24H1523.64L1492.68 165L1523.76 198H1508.88ZM1557.2 199.08C1552.16 199.08 1547.64 198.24 1543.64 196.56C1539.64 194.8 1536.48 192.4 1534.16 189.36C1531.84 186.24 1530.56 182.68 1530.32 178.68H1541.6C1541.92 181.96 1543.44 184.64 1546.16 186.72C1548.96 188.8 1552.6 189.84 1557.08 189.84C1561.24 189.84 1564.52 188.92 1566.92 187.08C1569.32 185.24 1570.52 182.92 1570.52 180.12C1570.52 177.24 1569.24 175.12 1566.68 173.76C1564.12 172.32 1560.16 170.92 1554.8 169.56C1549.92 168.28 1545.92 167 1542.8 165.72C1539.76 164.36 1537.12 162.4 1534.88 159.84C1532.72 157.2 1531.64 153.76 1531.64 149.52C1531.64 146.16 1532.64 143.08 1534.64 140.28C1536.64 137.48 1539.48 135.28 1543.16 133.68C1546.84 132 1551.04 131.16 1555.76 131.16C1563.04 131.16 1568.92 133 1573.4 136.68C1577.88 140.36 1580.28 145.4 1580.6 151.8H1569.68C1569.44 148.36 1568.04 145.6 1565.48 143.52C1563 141.44 1559.64 140.4 1555.4 140.4C1551.48 140.4 1548.36 141.24 1546.04 142.92C1543.72 144.6 1542.56 146.8 1542.56 149.52C1542.56 151.68 1543.24 153.48 1544.6 154.92C1546.04 156.28 1547.8 157.4 1549.88 158.28C1552.04 159.08 1555 160 1558.76 161.04C1563.48 162.32 1567.32 163.6 1570.28 164.88C1573.24 166.08 1575.76 167.92 1577.84 170.4C1580 172.88 1581.12 176.12 1581.2 180.12C1581.2 183.72 1580.2 186.96 1578.2 189.84C1576.2 192.72 1573.36 195 1569.68 196.68C1566.08 198.28 1561.92 199.08 1557.2 199.08Z" fill="black"/>
</svg>
