<svg width="25" height="24" viewBox="0 0 25 24" fill="none" xmlns="http://www.w3.org/2000/svg">
<path fill-rule="evenodd" clip-rule="evenodd" d="M2.23047 6.5C2.23047 5.87622 2.35333 5.25855 2.59204 4.68225C2.83075 4.10596 3.18063 3.58232 3.62171 3.14124C4.06279 2.70016 4.58643 2.35028 5.16272 2.11157C5.73902 1.87286 6.35669 1.75 6.98047 1.75C7.60425 1.75 8.22192 1.87286 8.79821 2.11157C9.37451 2.35028 9.89815 2.70016 10.3392 3.14124C10.7803 3.58232 11.1302 4.10596 11.3689 4.68225C11.6076 5.25855 11.7305 5.87622 11.7305 6.5C11.7305 7.75978 11.23 8.96796 10.3392 9.85876C9.44843 10.7496 8.24025 11.25 6.98047 11.25C5.72069 11.25 4.51251 10.7496 3.62171 9.85876C2.73091 8.96796 2.23047 7.75978 2.23047 6.5ZM13.2305 17.5C13.2305 16.8762 13.3533 16.2586 13.592 15.6823C13.8308 15.106 14.1806 14.5823 14.6217 14.1412C15.0628 13.7002 15.5864 13.3503 16.1627 13.1116C16.739 12.8729 17.3567 12.75 17.9805 12.75C18.6042 12.75 19.2219 12.8729 19.7982 13.1116C20.3745 13.3503 20.8981 13.7002 21.3392 14.1412C21.7803 14.5823 22.1302 15.106 22.3689 15.6823C22.6076 16.2586 22.7305 16.8762 22.7305 17.5C22.7305 18.7598 22.23 19.968 21.3392 20.8588C20.4484 21.7496 19.2402 22.25 17.9805 22.25C16.7207 22.25 15.5125 21.7496 14.6217 20.8588C13.7309 19.968 13.2305 18.7598 13.2305 17.5ZM22.7305 6.5C22.7305 5.87622 22.6076 5.25855 22.3689 4.68225C22.1302 4.10596 21.7803 3.58232 21.3392 3.14124C20.8981 2.70016 20.3745 2.35028 19.7982 2.11157C19.2219 1.87286 18.6042 1.75 17.9805 1.75C17.3567 1.75 16.739 1.87286 16.1627 2.11157C15.5864 2.35028 15.0628 2.70016 14.6217 3.14124C14.1806 3.58232 13.8308 4.10596 13.592 4.68225C13.3533 5.25855 13.2305 5.87622 13.2305 6.5C13.2305 7.75978 13.7309 8.96796 14.6217 9.85876C15.5125 10.7496 16.7207 11.25 17.9805 11.25C19.2402 11.25 20.4484 10.7496 21.3392 9.85876C22.23 8.96796 22.7305 7.75978 22.7305 6.5ZM11.7305 17.5C11.7305 16.8762 11.6076 16.2586 11.3689 15.6823C11.1302 15.106 10.7803 14.5823 10.3392 14.1412C9.89815 13.7002 9.37451 13.3503 8.79821 13.1116C8.22192 12.8729 7.60425 12.75 6.98047 12.75C6.35669 12.75 5.73902 12.8729 5.16272 13.1116C4.58643 13.3503 4.06279 13.7002 3.62171 14.1412C3.18063 14.5823 2.83075 15.106 2.59204 15.6823C2.35333 16.2586 2.23047 16.8762 2.23047 17.5C2.23047 18.7598 2.73091 19.968 3.62171 20.8588C4.51251 21.7496 5.72069 22.25 6.98047 22.25C8.24025 22.25 9.44843 21.7496 10.3392 20.8588C11.23 19.968 11.7305 18.7598 11.7305 17.5Z" fill="url(#paint0_linear_23_1106)"/>
<defs>
<linearGradient id="paint0_linear_23_1106" x1="12.4805" y1="1.75" x2="12.4805" y2="22.25" gradientUnits="userSpaceOnUse">
<stop stop-color="#7A2497"/>
<stop offset="1" stop-color="#C17E4B"/>
</linearGradient>
</defs>
</svg>
