<svg width="42" height="43" viewBox="0 0 42 43" fill="none" xmlns="http://www.w3.org/2000/svg">
<rect y="0.599609" width="42" height="42" rx="10" fill="url(#paint0_linear_23_2150)"/>
<g clip-path="url(#clip0_23_2150)">
<g clip-path="url(#clip1_23_2150)">
<path d="M20.8531 18.8965C20.3454 18.8965 19.849 19.0471 19.4269 19.3292C19.0047 19.6113 18.6757 20.0123 18.4814 20.4814C18.2872 20.9505 18.2364 21.4667 18.3355 21.9647C18.4347 22.4626 18.6792 22.92 19.0383 23.279C19.3974 23.638 19.8549 23.8824 20.353 23.9813C20.851 24.0802 21.3671 24.0293 21.8362 23.8348C22.3052 23.6404 22.7061 23.3112 22.988 22.8889C23.2699 22.4666 23.4203 21.9702 23.4201 21.4625C23.4212 21.1251 23.3555 20.7909 23.2269 20.4791C23.0982 20.1672 22.9092 19.8839 22.6706 19.6454C22.432 19.4069 22.1486 19.2179 21.8367 19.0894C21.5247 18.9609 21.1905 18.8953 20.8531 18.8965Z" fill="white"/>
<path fill-rule="evenodd" clip-rule="evenodd" d="M24.382 12.4316H17.333C15.8743 12.4316 14.4754 13.0111 13.4439 14.0426C12.4125 15.074 11.833 16.4729 11.833 17.9316V24.9816C11.833 26.4403 12.4125 27.8393 13.4439 28.8707C14.4754 29.9022 15.8743 30.4816 17.333 30.4816H24.383C25.8417 30.4816 27.2406 29.9022 28.2721 28.8707C29.3035 27.8393 29.883 26.4403 29.883 24.9816V17.9316C29.883 16.4729 29.3035 15.074 28.2721 14.0426C27.2406 13.0111 25.8417 12.4316 24.383 12.4316H24.382ZM20.853 25.3936C19.8075 25.3913 18.8058 24.9736 18.0682 24.2327C17.3306 23.4917 16.9176 22.4881 16.92 21.4426C16.9224 20.3972 17.34 19.3954 18.081 18.6579C18.8219 17.9203 19.8255 17.5073 20.871 17.5096C21.3887 17.5108 21.901 17.614 22.3789 17.8132C22.8567 18.0123 23.2906 18.3037 23.6558 18.6706C24.021 19.0375 24.3104 19.4727 24.5074 19.9514C24.7044 20.4301 24.8052 20.943 24.804 21.4606C24.8028 21.9783 24.6997 22.4907 24.5005 22.9685C24.3013 23.4463 24.0099 23.8802 23.6431 24.2454C23.2762 24.6106 22.8409 24.9 22.3622 25.097C21.8835 25.294 21.3707 25.3948 20.853 25.3936ZM24.277 16.9336C24.3538 17.1165 24.4832 17.2725 24.6488 17.3816C24.8144 17.4908 25.0087 17.5482 25.207 17.5466C25.4696 17.5466 25.7214 17.4423 25.907 17.2567C26.0927 17.071 26.197 16.8192 26.197 16.5566C26.1992 16.4078 26.1681 16.2603 26.106 16.1249C26.0439 15.9896 25.9524 15.8699 25.8381 15.7744C25.7238 15.679 25.5897 15.6103 25.4454 15.5733C25.3012 15.5363 25.1505 15.532 25.0044 15.5607C24.8583 15.5894 24.7205 15.6504 24.6009 15.7391C24.4814 15.8279 24.3832 15.9422 24.3135 16.0738C24.2438 16.2054 24.2043 16.3508 24.198 16.4996C24.1917 16.6484 24.2187 16.7966 24.277 16.9336Z" fill="white"/>
</g>
</g>
<defs>
<linearGradient id="paint0_linear_23_2150" x1="21" y1="0.599609" x2="21" y2="42.5996" gradientUnits="userSpaceOnUse">
<stop stop-color="#3D3D3D"/>
<stop offset="1" stop-color="#1A1A1A"/>
</linearGradient>
<clipPath id="clip0_23_2150">
<rect width="22" height="22" fill="white" transform="translate(10 10.5996)"/>
</clipPath>
<clipPath id="clip1_23_2150">
<rect width="22" height="22" fill="white" transform="translate(10 10.5996)"/>
</clipPath>
</defs>
</svg>
