<svg width="42" height="26" viewBox="0 0 42 26" fill="none" xmlns="http://www.w3.org/2000/svg">
<g clip-path="url(#clip0_23_1003)">
<g clip-path="url(#clip1_23_1003)">
<path d="M24.4143 10.281C27.7447 9.88963 30.9596 8.81979 33.8604 7.13752C36.7613 5.45526 39.2865 3.19626 41.2803 0.5V13H1.28027L24.4143 10.281Z" fill="url(#paint0_linear_23_1003)"/>
<path d="M24.4143 10.281C27.7447 9.88963 30.9596 8.81979 33.8604 7.13752C36.7613 5.45526 39.2865 3.19626 41.2803 0.5V13H1.28027L24.4143 10.281Z" fill="url(#paint1_linear_23_1003)"/>
<path d="M24.4143 15.719C27.7447 16.1104 30.9596 17.1802 33.8604 18.8625C36.7613 20.5447 39.2865 22.8037 41.2803 25.5V13H1.28027L24.4143 15.719Z" fill="url(#paint2_linear_23_1003)"/>
<path d="M24.4143 15.719C27.7447 16.1104 30.9596 17.1802 33.8604 18.8625C36.7613 20.5447 39.2865 22.8037 41.2803 25.5V13H1.28027L24.4143 15.719Z" fill="url(#paint3_linear_23_1003)"/>
<path d="M9.77988 9.09961H4.77988C2.90211 9.09961 1.37988 10.6218 1.37988 12.4996C1.37988 14.3774 2.90211 15.8996 4.77988 15.8996H9.77988C11.6577 15.8996 13.1799 14.3774 13.1799 12.4996C13.1799 10.6218 11.6577 9.09961 9.77988 9.09961Z" fill="white" stroke="#EDEFF3" stroke-width="0.8"/>
</g>
</g>
<defs>
<linearGradient id="paint0_linear_23_1003" x1="1.28027" y1="6.75" x2="41.2803" y2="7.5" gradientUnits="userSpaceOnUse">
<stop offset="0.515" stop-color="#FDFDFD"/>
<stop offset="1" stop-color="#FDFDFD" stop-opacity="0"/>
</linearGradient>
<linearGradient id="paint1_linear_23_1003" x1="1.28027" y1="6.75" x2="41.2803" y2="7.5" gradientUnits="userSpaceOnUse">
<stop offset="0.515" stop-color="#FDFDFD"/>
<stop offset="1" stop-color="#FDFDFD" stop-opacity="0"/>
</linearGradient>
<linearGradient id="paint2_linear_23_1003" x1="1.28027" y1="19.25" x2="41.2803" y2="18.5" gradientUnits="userSpaceOnUse">
<stop offset="0.515" stop-color="#FDFDFD"/>
<stop offset="1" stop-color="#FDFDFD" stop-opacity="0"/>
</linearGradient>
<linearGradient id="paint3_linear_23_1003" x1="1.28027" y1="19.25" x2="41.2803" y2="18.5" gradientUnits="userSpaceOnUse">
<stop offset="0.515" stop-color="#FDFDFD"/>
<stop offset="1" stop-color="#FDFDFD" stop-opacity="0"/>
</linearGradient>
<clipPath id="clip0_23_1003">
<rect width="41" height="25" fill="white" transform="translate(0.780273 0.5)"/>
</clipPath>
<clipPath id="clip1_23_1003">
<rect width="41" height="25" fill="white" transform="translate(0.780273 0.5)"/>
</clipPath>
</defs>
</svg>
