<svg width="42" height="43" viewBox="0 0 42 43" fill="none" xmlns="http://www.w3.org/2000/svg">
<rect y="0.599609" width="42" height="42" rx="10" fill="url(#paint0_linear_23_2140)"/>
<g clip-path="url(#clip0_23_2140)">
<g clip-path="url(#clip1_23_2140)">
<path fill-rule="evenodd" clip-rule="evenodd" d="M26.4771 26.1617C26.4781 26.3437 26.4201 26.3957 26.2431 26.3917C25.7415 26.3779 25.2396 26.3789 24.7381 26.3947C24.4861 26.4047 24.4111 26.3397 24.4141 26.0777C24.4291 24.9497 24.4201 23.8207 24.4221 22.6917C24.4221 22.3817 24.4021 22.0757 24.2881 21.7837C24.0951 21.2917 23.7631 20.9587 23.2131 20.9097C22.6271 20.8587 22.2011 21.1257 21.9131 21.6197C21.7251 21.9437 21.6831 22.3047 21.6831 22.6747C21.6851 23.8147 21.6771 24.9547 21.6901 26.0947C21.6931 26.3407 21.6181 26.4017 21.3831 26.3937C20.8815 26.3789 20.3796 26.3786 19.8781 26.3927C19.6861 26.3967 19.6281 26.3397 19.6281 26.1437C19.6331 23.7957 19.6331 21.4467 19.6281 19.0987C19.6281 18.9307 19.6631 18.8547 19.8531 18.8587C20.3881 18.8707 20.9241 18.8707 21.4601 18.8587C21.6461 18.8557 21.6941 18.9227 21.6871 19.0957C21.6751 19.3767 21.6841 19.6587 21.6841 20.0137C22.4781 19.0317 23.4341 18.7097 24.5701 18.9387C25.6701 19.1607 26.4271 20.1507 26.4591 21.4767C26.4961 23.0367 26.4691 24.5997 26.4771 26.1617ZM17.2331 17.9847C17.0759 17.9854 16.9203 17.9547 16.7751 17.8944C16.63 17.8342 16.4984 17.7456 16.3879 17.6339C16.2775 17.5221 16.1904 17.3894 16.1319 17.2436C16.0734 17.0978 16.0445 16.9418 16.0471 16.7847C16.0465 16.4673 16.1718 16.1626 16.3953 15.9373C16.6189 15.712 16.9227 15.5845 17.2401 15.5827C17.5572 15.5864 17.8599 15.7156 18.082 15.942C18.3041 16.1684 18.4275 16.4735 18.4251 16.7907C18.4271 16.9479 18.3976 17.1039 18.3385 17.2495C18.2793 17.3951 18.1916 17.5275 18.0805 17.6387C17.9695 17.75 17.8373 17.8379 17.6917 17.8973C17.5462 17.9567 17.3902 17.9864 17.2331 17.9847ZM17.9701 26.3947C17.4701 26.3747 16.9671 26.3817 16.4661 26.3917C16.2861 26.3947 16.2061 26.3617 16.2061 26.1527C16.2131 23.8057 16.2121 21.4597 16.2061 19.1127C16.2061 18.9237 16.2521 18.8527 16.4521 18.8587C16.9641 18.8717 17.4781 18.8747 17.9901 18.8577C18.2251 18.8487 18.2691 18.9367 18.2671 19.1497C18.2581 20.3117 18.2631 21.4727 18.2631 22.6357C18.2631 23.7857 18.2561 24.9367 18.2681 26.0877C18.2711 26.3217 18.2171 26.4037 17.9701 26.3947ZM29.1751 16.1347C29.1281 15.7607 29.1221 15.3767 28.9151 15.0427C28.2481 13.9597 27.3271 13.3427 26.0061 13.3497C22.6661 13.3667 19.3241 13.3497 15.9831 13.3617C15.4811 13.3627 14.9651 13.3797 14.5091 13.6487C13.3961 14.3077 12.7431 15.2287 12.7501 16.5777C12.7661 19.9297 12.7501 23.2817 12.7611 26.6347C12.7631 27.1077 12.7701 27.6017 13.0171 28.0267C13.6021 29.0337 14.3721 29.7807 15.6371 29.7767C15.6731 29.7767 15.7021 29.7937 15.7321 29.8087H26.2681C26.3261 29.7567 26.3981 29.7827 26.4641 29.7747C26.8421 29.7277 27.2341 29.7247 27.5701 29.5077C28.5101 28.9007 29.2001 28.1347 29.1801 26.9257C29.1801 26.9047 29.1941 26.8857 29.2101 26.8677V16.3317C29.1631 16.2717 29.1831 16.2017 29.1751 16.1347Z" fill="white"/>
</g>
</g>
<defs>
<linearGradient id="paint0_linear_23_2140" x1="21" y1="0.599609" x2="21" y2="42.5996" gradientUnits="userSpaceOnUse">
<stop stop-color="#3D3D3D"/>
<stop offset="1" stop-color="#1A1A1A"/>
</linearGradient>
<clipPath id="clip0_23_2140">
<rect width="22" height="22" fill="white" transform="translate(10 10.5996)"/>
</clipPath>
<clipPath id="clip1_23_2140">
<rect width="22" height="22" fill="white" transform="translate(10 10.5996)"/>
</clipPath>
</defs>
</svg>
