<svg width="24" height="24" viewBox="0 0 24 24" fill="none" xmlns="http://www.w3.org/2000/svg">
<g clip-path="url(#clip0_23_1261)">
<path d="M9.00098 10C11.2101 10 13.001 8.20914 13.001 6C13.001 3.79086 11.2101 2 9.00098 2C6.79184 2 5.00098 3.79086 5.00098 6C5.00098 8.20914 6.79184 10 9.00098 10Z" fill="url(#paint0_linear_23_1261)"/>
<path d="M9.00098 21.001C12.867 21.001 16.001 19.2101 16.001 17.001C16.001 14.7918 12.867 13.001 9.00098 13.001C5.13498 13.001 2.00098 14.7918 2.00098 17.001C2.00098 19.2101 5.13498 21.001 9.00098 21.001Z" fill="url(#paint1_linear_23_1261)"/>
<path d="M20.9997 16.9996C20.9997 18.6576 18.9637 19.9996 16.4787 19.9996C17.2107 19.1996 17.7147 18.1956 17.7147 17.0016C17.7147 15.8066 17.2097 14.8016 16.4757 14.0006C18.9617 13.9996 20.9997 15.3436 20.9997 16.9996ZM17.9997 6.00063C18 6.48334 17.8839 6.95901 17.6611 7.38724C17.4383 7.81546 17.1154 8.18361 16.72 8.4604C16.3245 8.7372 15.8681 8.91449 15.3895 8.9772C14.9108 9.03991 14.4241 8.9862 13.9707 8.82063C14.4594 7.96088 14.7155 6.98856 14.7137 5.99963C14.7137 4.97463 14.4437 4.01263 13.9717 3.18163C14.4251 3.01626 14.9117 2.96271 15.3902 3.02552C15.8686 3.08833 16.3249 3.26564 16.7203 3.54242C17.1156 3.8192 17.4383 4.18726 17.6611 4.61538C17.8838 5.0435 18 5.51803 17.9997 6.00063Z" fill="url(#paint2_linear_23_1261)"/>
</g>
<defs>
<linearGradient id="paint0_linear_23_1261" x1="9.00098" y1="2" x2="9.00098" y2="10" gradientUnits="userSpaceOnUse">
<stop stop-color="#7D2894"/>
<stop offset="1" stop-color="#BC7850"/>
</linearGradient>
<linearGradient id="paint1_linear_23_1261" x1="9.00098" y1="13.001" x2="9.00098" y2="21.001" gradientUnits="userSpaceOnUse">
<stop stop-color="#7D2894"/>
<stop offset="1" stop-color="#BC7850"/>
</linearGradient>
<linearGradient id="paint2_linear_23_1261" x1="17.4852" y1="3" x2="17.4852" y2="19.9996" gradientUnits="userSpaceOnUse">
<stop stop-color="#7D2894"/>
<stop offset="1" stop-color="#BC7850"/>
</linearGradient>
<clipPath id="clip0_23_1261">
<rect width="24" height="24" fill="white"/>
</clipPath>
</defs>
</svg>
