<svg width="350" height="146" viewBox="0 0 320 146" fill="none" xmlns="http://www.w3.org/2000/svg">
<g clip-path="url(#clip0_23_1192)">
<rect width="320" height="146" rx="8" fill="#EDEEF1"/>
<path d="M32.7251 31.4545V41H31.6065L26.405 33.5053H26.3118V41H25.1559V31.4545H26.2745L31.4947 38.9679H31.5879V31.4545H32.7251ZM37.8905 41.1491C37.2007 41.1491 36.6057 40.9969 36.1054 40.6924C35.6083 40.3848 35.2245 39.956 34.9542 39.406C34.687 38.8529 34.5534 38.2097 34.5534 37.4764C34.5534 36.7431 34.687 36.0968 34.9542 35.5375C35.2245 34.9751 35.6005 34.5369 36.0821 34.2231C36.5669 33.9062 37.1324 33.7477 37.7787 33.7477C38.1516 33.7477 38.5198 33.8098 38.8833 33.9341C39.2469 34.0584 39.5778 34.2604 39.8761 34.54C40.1744 34.8166 40.4121 35.1832 40.5892 35.64C40.7663 36.0968 40.8549 36.6592 40.8549 37.3272V37.7933H35.3364V36.8425H39.7363C39.7363 36.4386 39.6555 36.0781 39.4939 35.7612C39.3354 35.4442 39.1086 35.1941 38.8134 35.0108C38.5213 34.8275 38.1764 34.7358 37.7787 34.7358C37.3406 34.7358 36.9615 34.8445 36.6414 35.0621C36.3245 35.2765 36.0806 35.5561 35.9097 35.901C35.7388 36.2459 35.6533 36.6157 35.6533 37.0103V37.6442C35.6533 38.1848 35.7465 38.6432 35.933 39.0191C36.1225 39.392 36.3851 39.6763 36.7207 39.8721C37.0563 40.0647 37.4462 40.161 37.8905 40.161C38.1795 40.161 38.4405 40.1206 38.6736 40.0399C38.9097 39.956 39.1132 39.8317 39.2841 39.667C39.455 39.4992 39.5871 39.291 39.6803 39.0424L40.743 39.3407C40.6311 39.7012 40.4431 40.0181 40.179 40.2915C39.9149 40.5619 39.5887 40.7732 39.2003 40.9254C38.8118 41.0746 38.3753 41.1491 37.8905 41.1491ZM45.5297 41.1491C44.8399 41.1491 44.2449 40.9969 43.7446 40.6924C43.2474 40.3848 42.8637 39.956 42.5934 39.406C42.3261 38.8529 42.1925 38.2097 42.1925 37.4764C42.1925 36.7431 42.3261 36.0968 42.5934 35.5375C42.8637 34.9751 43.2397 34.5369 43.7213 34.2231C44.206 33.9062 44.7715 33.7477 45.4178 33.7477C45.7907 33.7477 46.1589 33.8098 46.5225 33.9341C46.886 34.0584 47.2169 34.2604 47.5152 34.54C47.8135 34.8166 48.0512 35.1832 48.2283 35.64C48.4055 36.0968 48.494 36.6592 48.494 37.3272V37.7933H42.9756V36.8425H47.3754C47.3754 36.4386 47.2946 36.0781 47.133 35.7612C46.9746 35.4442 46.7477 35.1941 46.4526 35.0108C46.1605 34.8275 45.8156 34.7358 45.4178 34.7358C44.9797 34.7358 44.6006 34.8445 44.2806 35.0621C43.9637 35.2765 43.7197 35.5561 43.5488 35.901C43.3779 36.2459 43.2925 36.6157 43.2925 37.0103V37.6442C43.2925 38.1848 43.3857 38.6432 43.5721 39.0191C43.7617 39.392 44.0242 39.6763 44.3598 39.8721C44.6954 40.0647 45.0854 40.161 45.5297 40.161C45.8187 40.161 46.0797 40.1206 46.3127 40.0399C46.5489 39.956 46.7524 39.8317 46.9233 39.667C47.0942 39.4992 47.2263 39.291 47.3195 39.0424L48.3822 39.3407C48.2703 39.7012 48.0823 40.0181 47.8182 40.2915C47.5541 40.5619 47.2278 40.7732 46.8394 40.9254C46.451 41.0746 46.0144 41.1491 45.5297 41.1491ZM52.8706 41.1491C52.274 41.1491 51.7473 40.9984 51.2905 40.697C50.8338 40.3925 50.4764 39.9637 50.2185 39.4106C49.9606 38.8544 49.8317 38.1973 49.8317 37.4391C49.8317 36.6871 49.9606 36.0346 50.2185 35.4815C50.4764 34.9284 50.8353 34.5012 51.2952 34.1998C51.7551 33.8984 52.2864 33.7477 52.8892 33.7477C53.3553 33.7477 53.7235 33.8254 53.9938 33.9807C54.2673 34.133 54.4755 34.307 54.6184 34.5028C54.7644 34.6954 54.8779 34.8539 54.9586 34.9782H55.0519V31.4545H56.1518V41H55.0891V39.9H54.9586C54.8779 40.0305 54.7629 40.1952 54.6137 40.3941C54.4646 40.5898 54.2517 40.7654 53.9752 40.9208C53.6987 41.073 53.3304 41.1491 52.8706 41.1491ZM53.0197 40.161C53.4609 40.161 53.8338 40.0461 54.1383 39.8161C54.4428 39.5831 54.6743 39.2615 54.8328 38.8513C54.9913 38.4381 55.0705 37.9611 55.0705 37.4205C55.0705 36.886 54.9928 36.4184 54.8375 36.0175C54.6821 35.6136 54.4522 35.2998 54.1476 35.076C53.8431 34.8492 53.4672 34.7358 53.0197 34.7358C52.5536 34.7358 52.1652 34.8554 51.8545 35.0947C51.5469 35.3308 51.3154 35.6524 51.16 36.0595C51.0078 36.4634 50.9317 36.9171 50.9317 37.4205C50.9317 37.93 51.0093 38.393 51.1647 38.8094C51.3232 39.2227 51.5562 39.552 51.8638 39.7975C52.1745 40.0399 52.5598 40.161 53.0197 40.161ZM64.1172 41.1678C63.6636 41.1678 63.2519 41.0823 62.8821 40.9114C62.5124 40.7374 62.2187 40.4873 62.0012 40.161C61.7837 39.8317 61.6749 39.4339 61.6749 38.9679C61.6749 38.5577 61.7557 38.2252 61.9173 37.9704C62.0789 37.7125 62.2948 37.5106 62.5652 37.3645C62.8355 37.2185 63.1338 37.1097 63.4601 37.0383C63.7894 36.9637 64.1204 36.9047 64.4528 36.8612C64.8878 36.8052 65.2405 36.7633 65.5108 36.7353C65.7843 36.7042 65.9831 36.653 66.1074 36.5815C66.2348 36.51 66.2985 36.3857 66.2985 36.2086V36.1713C66.2985 35.7115 66.1727 35.3541 65.921 35.0993C65.6724 34.8445 65.2949 34.7172 64.7884 34.7172C64.2633 34.7172 63.8516 34.8321 63.5533 35.0621C63.255 35.292 63.0452 35.5375 62.9241 35.7985L61.88 35.4256C62.0665 34.9906 62.315 34.6519 62.6258 34.4095C62.9396 34.1641 63.2814 33.9932 63.6512 33.8968C64.024 33.7974 64.3907 33.7477 64.7511 33.7477C64.9811 33.7477 65.2452 33.7757 65.5435 33.8316C65.8449 33.8844 66.1354 33.9947 66.4151 34.1625C66.6978 34.3303 66.9324 34.5835 67.1188 34.9222C67.3053 35.2609 67.3985 35.7146 67.3985 36.2832V41H66.2985V40.0305H66.2426C66.168 40.1859 66.0437 40.3521 65.8697 40.5293C65.6957 40.7064 65.4642 40.8571 65.1753 40.9814C64.8863 41.1056 64.5336 41.1678 64.1172 41.1678ZM64.285 40.1797C64.72 40.1797 65.0867 40.0942 65.385 39.9233C65.6864 39.7524 65.9132 39.5318 66.0655 39.2615C66.2208 38.9912 66.2985 38.7069 66.2985 38.4086V37.4018C66.2519 37.4577 66.1494 37.509 65.9909 37.5556C65.8355 37.5991 65.6553 37.638 65.4503 37.6721C65.2483 37.7032 65.051 37.7312 64.8583 37.756C64.6688 37.7778 64.515 37.7964 64.3969 37.812C64.111 37.8493 63.8438 37.9098 63.5952 37.9937C63.3498 38.0745 63.1509 38.1973 62.9986 38.3619C62.8495 38.5235 62.7749 38.7441 62.7749 39.0238C62.7749 39.406 62.9163 39.695 63.1991 39.8907C63.4849 40.0834 63.8469 40.1797 64.285 40.1797ZM74.7195 41L72.5383 33.8409H73.6942L75.2416 39.3221H75.3161L76.8449 33.8409H78.0194L79.5296 39.3034H79.6041L81.1515 33.8409H82.3074L80.1262 41H79.0448L77.4788 35.5002H77.3669L75.8009 41H74.7195ZM86.5197 41.1491C85.8299 41.1491 85.2349 40.9969 84.7346 40.6924C84.2374 40.3848 83.8537 39.956 83.5834 39.406C83.3161 38.8529 83.1825 38.2097 83.1825 37.4764C83.1825 36.7431 83.3161 36.0968 83.5834 35.5375C83.8537 34.9751 84.2297 34.5369 84.7113 34.2231C85.196 33.9062 85.7615 33.7477 86.4078 33.7477C86.7807 33.7477 87.1489 33.8098 87.5125 33.9341C87.876 34.0584 88.2069 34.2604 88.5052 34.54C88.8035 34.8166 89.0412 35.1832 89.2183 35.64C89.3955 36.0968 89.484 36.6592 89.484 37.3272V37.7933H83.9655V36.8425H88.3654C88.3654 36.4386 88.2846 36.0781 88.123 35.7612C87.9646 35.4442 87.7377 35.1941 87.4425 35.0108C87.1505 34.8275 86.8056 34.7358 86.4078 34.7358C85.9697 34.7358 85.5906 34.8445 85.2706 35.0621C84.9536 35.2765 84.7097 35.5561 84.5388 35.901C84.3679 36.2459 84.2825 36.6157 84.2825 37.0103V37.6442C84.2825 38.1848 84.3757 38.6432 84.5621 39.0191C84.7517 39.392 85.0142 39.6763 85.3498 39.8721C85.6854 40.0647 86.0754 40.161 86.5197 40.161C86.8087 40.161 87.0697 40.1206 87.3027 40.0399C87.5389 39.956 87.7424 39.8317 87.9133 39.667C88.0842 39.4992 88.2163 39.291 88.3095 39.0424L89.3721 39.3407C89.2603 39.7012 89.0723 40.0181 88.8082 40.2915C88.5441 40.5619 88.2178 40.7732 87.8294 40.9254C87.441 41.0746 87.0044 41.1491 86.5197 41.1491ZM91.3064 41V31.4545H92.4064V34.9782H92.4996C92.5804 34.8539 92.6922 34.6954 92.8352 34.5028C92.9812 34.307 93.1894 34.133 93.4597 33.9807C93.7332 33.8254 94.1029 33.7477 94.569 33.7477C95.1718 33.7477 95.7032 33.8984 96.163 34.1998C96.6229 34.5012 96.9818 34.9284 97.2397 35.4815C97.4976 36.0346 97.6265 36.6871 97.6265 37.4391C97.6265 38.1973 97.4976 38.8544 97.2397 39.4106C96.9818 39.9637 96.6245 40.3925 96.1677 40.697C95.7109 40.9984 95.1842 41.1491 94.5877 41.1491C94.1278 41.1491 93.7596 41.073 93.483 40.9208C93.2065 40.7654 92.9936 40.5898 92.8445 40.3941C92.6953 40.1952 92.5804 40.0305 92.4996 39.9H92.3691V41H91.3064ZM92.3877 37.4205C92.3877 37.9611 92.467 38.4381 92.6254 38.8513C92.7839 39.2615 93.0154 39.5831 93.3199 39.8161C93.6244 40.0461 93.9973 40.161 94.4385 40.161C94.8984 40.161 95.2821 40.0399 95.5897 39.7975C95.9005 39.552 96.1335 39.2227 96.2889 38.8094C96.4473 38.393 96.5266 37.93 96.5266 37.4205C96.5266 36.9171 96.4489 36.4634 96.2935 36.0595C96.1413 35.6524 95.9098 35.3308 95.5991 35.0947C95.2914 34.8554 94.9046 34.7358 94.4385 34.7358C93.9911 34.7358 93.6151 34.8492 93.3106 35.076C93.0061 35.2998 92.7761 35.6136 92.6208 36.0175C92.4654 36.4184 92.3877 36.886 92.3877 37.4205ZM104.38 35.4442L103.392 35.7239C103.33 35.5592 103.238 35.3992 103.117 35.2438C102.999 35.0854 102.837 34.9549 102.632 34.8523C102.427 34.7498 102.165 34.6985 101.845 34.6985C101.407 34.6985 101.041 34.7995 100.749 35.0015C100.46 35.2003 100.316 35.4536 100.316 35.7612C100.316 36.0346 100.415 36.2506 100.614 36.409C100.813 36.5675 101.124 36.6996 101.546 36.8052L102.609 37.0662C103.249 37.2216 103.726 37.4593 104.04 37.7793C104.354 38.0963 104.511 38.5049 104.511 39.0051C104.511 39.4153 104.393 39.782 104.156 40.1051C103.923 40.4283 103.597 40.6831 103.178 40.8695C102.758 41.0559 102.27 41.1491 101.714 41.1491C100.984 41.1491 100.38 40.9907 99.901 40.6737C99.4225 40.3568 99.1196 39.8938 98.9922 39.2848L100.036 39.0238C100.136 39.4091 100.324 39.6981 100.6 39.8907C100.88 40.0834 101.245 40.1797 101.695 40.1797C102.208 40.1797 102.615 40.0709 102.917 39.8534C103.221 39.6328 103.373 39.3687 103.373 39.0611C103.373 38.8125 103.286 38.6043 103.112 38.4365C102.938 38.2656 102.671 38.1382 102.311 38.0543L101.118 37.7747C100.462 37.6193 99.9803 37.3785 99.6727 37.0522C99.3682 36.7229 99.2159 36.3112 99.2159 35.8171C99.2159 35.4132 99.3293 35.0558 99.5561 34.7451C99.7861 34.4344 100.098 34.1905 100.493 34.0134C100.891 33.8362 101.341 33.7477 101.845 33.7477C102.553 33.7477 103.109 33.9031 103.513 34.2138C103.92 34.5245 104.209 34.9347 104.38 35.4442ZM106.166 41V33.8409H107.266V41H106.166ZM106.726 32.6477C106.511 32.6477 106.326 32.5747 106.171 32.4287C106.019 32.2826 105.943 32.1071 105.943 31.902C105.943 31.6969 106.019 31.5214 106.171 31.3753C106.326 31.2293 106.511 31.1562 106.726 31.1562C106.94 31.1562 107.123 31.2293 107.276 31.3753C107.431 31.5214 107.509 31.6969 107.509 31.902C107.509 32.1071 107.431 32.2826 107.276 32.4287C107.123 32.5747 106.94 32.6477 106.726 32.6477ZM112.394 33.8409V34.7731H108.684V33.8409H112.394ZM109.766 32.1257H110.866V38.9492C110.866 39.2599 110.911 39.493 111.001 39.6483C111.094 39.8006 111.212 39.9031 111.355 39.956C111.501 40.0057 111.655 40.0305 111.817 40.0305C111.938 40.0305 112.037 40.0243 112.115 40.0119C112.193 39.9964 112.255 39.9839 112.301 39.9746L112.525 40.9627C112.45 40.9907 112.346 41.0186 112.213 41.0466C112.079 41.0777 111.91 41.0932 111.705 41.0932C111.394 41.0932 111.089 41.0264 110.791 40.8928C110.496 40.7592 110.25 40.5557 110.055 40.2822C109.862 40.0088 109.766 39.6639 109.766 39.2475V32.1257ZM116.974 41.1491C116.284 41.1491 115.689 40.9969 115.189 40.6924C114.692 40.3848 114.308 39.956 114.037 39.406C113.77 38.8529 113.637 38.2097 113.637 37.4764C113.637 36.7431 113.77 36.0968 114.037 35.5375C114.308 34.9751 114.684 34.5369 115.165 34.2231C115.65 33.9062 116.216 33.7477 116.862 33.7477C117.235 33.7477 117.603 33.8098 117.967 33.9341C118.33 34.0584 118.661 34.2604 118.959 34.54C119.258 34.8166 119.495 35.1832 119.672 35.64C119.85 36.0968 119.938 36.6592 119.938 37.3272V37.7933H114.42V36.8425H118.82C118.82 36.4386 118.739 36.0781 118.577 35.7612C118.419 35.4442 118.192 35.1941 117.897 35.0108C117.605 34.8275 117.26 34.7358 116.862 34.7358C116.424 34.7358 116.045 34.8445 115.725 35.0621C115.408 35.2765 115.164 35.5561 114.993 35.901C114.822 36.2459 114.737 36.6157 114.737 37.0103V37.6442C114.737 38.1848 114.83 38.6432 115.016 39.0191C115.206 39.392 115.468 39.6763 115.804 39.8721C116.14 40.0647 116.529 40.161 116.974 40.161C117.263 40.161 117.524 40.1206 117.757 40.0399C117.993 39.956 118.197 39.8317 118.367 39.667C118.538 39.4992 118.67 39.291 118.764 39.0424L119.826 39.3407C119.714 39.7012 119.526 40.0181 119.262 40.2915C118.998 40.5619 118.672 40.7732 118.284 40.9254C117.895 41.0746 117.459 41.1491 116.974 41.1491ZM123.047 38.3153V38.2594C123.053 37.6659 123.115 37.1936 123.233 36.8425C123.351 36.4914 123.519 36.2071 123.737 35.9896C123.954 35.7721 124.215 35.5716 124.52 35.3883C124.703 35.2765 124.868 35.1444 125.014 34.9921C125.16 34.8368 125.275 34.6581 125.359 34.4561C125.446 34.2542 125.489 34.0305 125.489 33.785C125.489 33.4805 125.418 33.2164 125.275 32.9926C125.132 32.7689 124.941 32.5965 124.702 32.4753C124.462 32.3541 124.197 32.2935 123.905 32.2935C123.65 32.2935 123.404 32.3463 123.168 32.452C122.932 32.5576 122.735 32.7239 122.576 32.9507C122.418 33.1775 122.326 33.4743 122.301 33.8409H121.127C121.151 33.3127 121.288 32.8606 121.537 32.4846C121.788 32.1086 122.119 31.8212 122.53 31.6223C122.943 31.4235 123.401 31.324 123.905 31.324C124.451 31.324 124.927 31.4328 125.331 31.6503C125.738 31.8678 126.052 32.1661 126.272 32.5452C126.496 32.9243 126.608 33.3562 126.608 33.8409C126.608 34.1827 126.555 34.4919 126.449 34.7684C126.347 35.045 126.198 35.292 126.002 35.5095C125.809 35.727 125.576 35.9197 125.303 36.0874C125.029 36.2583 124.81 36.4386 124.646 36.6281C124.481 36.8145 124.361 37.0367 124.287 37.2946C124.212 37.5525 124.172 37.8741 124.166 38.2594V38.3153H123.047ZM123.643 41.0746C123.414 41.0746 123.216 40.9922 123.052 40.8275C122.887 40.6629 122.805 40.4656 122.805 40.2356C122.805 40.0057 122.887 39.8084 123.052 39.6437C123.216 39.479 123.414 39.3967 123.643 39.3967C123.873 39.3967 124.071 39.479 124.235 39.6437C124.4 39.8084 124.482 40.0057 124.482 40.2356C124.482 40.3879 124.444 40.5277 124.366 40.6551C124.291 40.7825 124.19 40.885 124.063 40.9627C123.939 41.0373 123.799 41.0746 123.643 41.0746Z" fill="#24242A"/>
<path d="M294.531 33.0303L286.531 41.0303C286.461 41.1002 286.378 41.1557 286.287 41.1936C286.196 41.2314 286.098 41.2509 285.999 41.2509C285.901 41.2509 285.803 41.2314 285.712 41.1936C285.621 41.1557 285.538 41.1002 285.468 41.0303L281.968 37.5303C281.898 37.4606 281.843 37.3777 281.805 37.2866C281.767 37.1954 281.748 37.0977 281.748 36.9991C281.748 36.9004 281.767 36.8027 281.805 36.7116C281.843 36.6204 281.898 36.5376 281.968 36.4678C282.038 36.3981 282.121 36.3427 282.212 36.305C282.303 36.2672 282.401 36.2478 282.499 36.2478C282.598 36.2478 282.696 36.2672 282.787 36.305C282.878 36.3427 282.961 36.3981 283.031 36.4678L286 39.4372L293.469 31.9691C293.61 31.8282 293.801 31.749 294.001 31.749C294.2 31.749 294.391 31.8282 294.532 31.9691C294.673 32.11 294.752 32.3011 294.752 32.5003C294.752 32.6996 294.673 32.8907 294.532 33.0316L294.531 33.0303Z" fill="#94979E"/>
<g filter="url(#filter0_dddd_23_1192)">
<rect x="24" y="64" width="272" height="200" rx="8" fill="#F7F7F8"/>
<g clip-path="url(#clip1_23_1192)">
<path d="M54.4594 88.9422C54.9101 88.3932 55.1957 87.7275 55.2828 87.0226C55.37 86.3176 55.2551 85.6024 54.9516 84.9602C54.6481 84.318 54.1684 83.7752 53.5684 83.395C52.9685 83.0147 52.2728 82.8128 51.5625 82.8125H46.25C46.0014 82.8125 45.7629 82.9113 45.5871 83.0871C45.4113 83.2629 45.3125 83.5014 45.3125 83.75V95.625C45.3125 95.8736 45.4113 96.1121 45.5871 96.2879C45.7629 96.4637 46.0014 96.5625 46.25 96.5625H52.5C53.401 96.5621 54.2764 96.2622 54.9883 95.7099C55.7003 95.1576 56.2084 94.3843 56.4328 93.5117C56.6572 92.639 56.5851 91.7165 56.2278 90.8893C55.8706 90.0621 55.2485 89.3771 54.4594 88.9422ZM47.1875 84.6875H51.5625C52.0598 84.6875 52.5367 84.885 52.8883 85.2367C53.24 85.5883 53.4375 86.0652 53.4375 86.5625C53.4375 87.0598 53.24 87.5367 52.8883 87.8883C52.5367 88.24 52.0598 88.4375 51.5625 88.4375H47.1875V84.6875ZM52.5 94.6875H47.1875V90.3125H52.5C53.0802 90.3125 53.6366 90.543 54.0468 90.9532C54.457 91.3634 54.6875 91.9198 54.6875 92.5C54.6875 93.0802 54.457 93.6366 54.0468 94.0468C53.6366 94.457 53.0802 94.6875 52.5 94.6875Z" fill="#94979E"/>
<path d="M87.9375 84.375C87.9375 84.6236 87.8387 84.8621 87.6629 85.0379C87.4871 85.2137 87.2486 85.3125 87 85.3125H84.5508L81.4258 94.6875H83.25C83.4986 94.6875 83.7371 94.7863 83.9129 94.9621C84.0887 95.1379 84.1875 95.3764 84.1875 95.625C84.1875 95.8736 84.0887 96.1121 83.9129 96.2879C83.7371 96.4637 83.4986 96.5625 83.25 96.5625H77C76.7514 96.5625 76.5129 96.4637 76.3371 96.2879C76.1613 96.1121 76.0625 95.8736 76.0625 95.625C76.0625 95.3764 76.1613 95.1379 76.3371 94.9621C76.5129 94.7863 76.7514 94.6875 77 94.6875H79.4492L82.5742 85.3125H80.75C80.5014 85.3125 80.2629 85.2137 80.0871 85.0379C79.9113 84.8621 79.8125 84.6236 79.8125 84.375C79.8125 84.1264 79.9113 83.8879 80.0871 83.7121C80.2629 83.5363 80.5014 83.4375 80.75 83.4375H87C87.2486 83.4375 87.4871 83.5363 87.6629 83.7121C87.8387 83.8879 87.9375 84.1264 87.9375 84.375Z" fill="#94979E"/>
<path d="M113.155 94.7454C113.242 94.8325 113.312 94.936 113.359 95.05C113.406 95.1639 113.431 95.2861 113.431 95.4095C113.431 95.5329 113.406 95.655 113.359 95.769C113.312 95.883 113.242 95.9864 113.155 96.0735L112.755 96.4735C112.33 96.8997 111.825 97.2375 111.269 97.4674C110.713 97.6972 110.117 97.8145 109.516 97.8126C108.61 97.8129 107.724 97.5445 106.971 97.0413C106.217 96.5381 105.63 95.8227 105.283 94.9857C104.937 94.1487 104.846 93.2276 105.023 92.3391C105.199 91.4505 105.636 90.6343 106.277 89.9939L108.992 87.279C109.569 86.7016 110.29 86.2891 111.081 86.0841C111.871 85.8791 112.702 85.8892 113.487 86.1131C114.272 86.3371 114.984 86.7669 115.547 87.358C116.11 87.9491 116.505 88.68 116.692 89.4751C116.722 89.596 116.729 89.7218 116.71 89.8452C116.692 89.9686 116.649 90.0871 116.584 90.1937C116.519 90.3003 116.434 90.3928 116.333 90.466C116.232 90.5392 116.117 90.5914 115.996 90.6197C115.874 90.648 115.748 90.6517 115.625 90.6307C115.502 90.6097 115.385 90.5644 115.279 90.4974C115.174 90.4303 115.083 90.343 115.012 90.2404C114.941 90.1379 114.891 90.0222 114.866 89.9001C114.755 89.4308 114.522 88.9994 114.189 88.6506C113.856 88.3019 113.436 88.0484 112.972 87.9163C112.508 87.7842 112.018 87.7784 111.551 87.8995C111.084 88.0205 110.658 88.264 110.317 88.6048L107.602 91.3196C107.224 91.6978 106.966 92.1796 106.862 92.7043C106.757 93.2289 106.81 93.7728 107.015 94.2671C107.22 94.7614 107.566 95.184 108.011 95.4813C108.456 95.7787 108.978 95.9375 109.513 95.9376C109.869 95.9386 110.221 95.8691 110.549 95.7331C110.878 95.5972 111.176 95.3974 111.427 95.1454L111.826 94.7454C111.913 94.6579 112.017 94.5885 112.131 94.5411C112.245 94.4937 112.367 94.4693 112.49 94.4693C112.614 94.4693 112.736 94.4937 112.85 94.5411C112.964 94.5885 113.068 94.6579 113.155 94.7454ZM121.721 83.529C120.862 82.67 119.697 82.1875 118.482 82.1875C117.267 82.1875 116.102 82.67 115.242 83.529L114.843 83.9282C114.667 84.1044 114.568 84.3432 114.568 84.5923C114.568 84.8414 114.667 85.0802 114.843 85.2564C115.019 85.4325 115.258 85.5314 115.507 85.5314C115.756 85.5314 115.995 85.4325 116.171 85.2564L116.571 84.8564C117.079 84.3487 117.767 84.0635 118.485 84.0635C119.203 84.0635 119.892 84.3487 120.399 84.8564C120.907 85.364 121.192 86.0525 121.192 86.7704C121.192 87.4883 120.907 88.1768 120.399 88.6845L117.68 91.3954C117.429 91.6475 117.131 91.8473 116.803 91.9833C116.474 92.1192 116.122 92.1887 115.767 92.1876C115.157 92.1872 114.565 91.9808 114.087 91.6019C113.609 91.2229 113.274 90.6938 113.134 90.1001C113.078 89.8579 112.928 89.648 112.717 89.5166C112.506 89.3851 112.251 89.343 112.009 89.3993C111.766 89.4557 111.557 89.606 111.425 89.8171C111.294 90.0282 111.252 90.2829 111.308 90.5251C111.543 91.5305 112.111 92.4269 112.92 93.069C113.728 93.7111 114.73 94.0612 115.763 94.0626H115.767C116.368 94.0643 116.965 93.9466 117.521 93.7163C118.077 93.4861 118.582 93.1478 119.006 92.7212L121.721 90.0064C122.147 89.5811 122.484 89.0762 122.714 88.5205C122.944 87.9648 123.063 87.3692 123.063 86.7677C123.063 86.1662 122.944 85.5706 122.714 85.0149C122.484 84.4592 122.147 83.9543 121.721 83.529Z" fill="#94979E"/>
<path d="M151.938 97.5C151.938 97.7486 151.839 97.9871 151.663 98.1629C151.487 98.3387 151.249 98.4375 151 98.4375H141C140.751 98.4375 140.513 98.3387 140.337 98.1629C140.161 97.9871 140.062 97.7486 140.062 97.5C140.062 97.2514 140.161 97.0129 140.337 96.8371C140.513 96.6613 140.751 96.5625 141 96.5625H151C151.249 96.5625 151.487 96.6613 151.663 96.8371C151.839 97.0129 151.938 97.2514 151.938 97.5ZM146 95.3125C147.409 95.3111 148.759 94.7509 149.755 93.7549C150.751 92.7589 151.311 91.4085 151.312 90V84.375C151.312 84.1264 151.214 83.8879 151.038 83.7121C150.862 83.5363 150.624 83.4375 150.375 83.4375C150.126 83.4375 149.888 83.5363 149.712 83.7121C149.536 83.8879 149.438 84.1264 149.438 84.375V90C149.438 90.9117 149.075 91.786 148.431 92.4307C147.786 93.0753 146.912 93.4375 146 93.4375C145.088 93.4375 144.214 93.0753 143.569 92.4307C142.925 91.786 142.562 90.9117 142.562 90V84.375C142.562 84.1264 142.464 83.8879 142.288 83.7121C142.112 83.5363 141.874 83.4375 141.625 83.4375C141.376 83.4375 141.138 83.5363 140.962 83.7121C140.786 83.8879 140.688 84.1264 140.688 84.375V90C140.689 91.4085 141.249 92.7589 142.245 93.7549C143.241 94.7509 144.591 95.3111 146 95.3125Z" fill="#94979E"/>
<path d="M185.812 90C185.812 90.2486 185.714 90.4871 185.538 90.6629C185.362 90.8387 185.124 90.9375 184.875 90.9375H182.52C183.046 91.5435 183.328 92.3229 183.312 93.125C183.312 94.2539 182.702 95.3375 181.638 96.0977C180.656 96.8008 179.363 97.1875 178 97.1875C176.637 97.1875 175.344 96.8008 174.362 96.0977C173.298 95.3375 172.688 94.2539 172.688 93.125C172.688 92.8764 172.786 92.6379 172.962 92.4621C173.138 92.2863 173.376 92.1875 173.625 92.1875C173.874 92.1875 174.112 92.2863 174.288 92.4621C174.464 92.6379 174.562 92.8764 174.562 93.125C174.562 94.3109 176.137 95.3125 178 95.3125C179.863 95.3125 181.438 94.3109 181.438 93.125C181.438 92.1281 180.711 91.5484 178.676 90.9375H171.125C170.876 90.9375 170.638 90.8387 170.462 90.6629C170.286 90.4871 170.188 90.2486 170.188 90C170.188 89.7514 170.286 89.5129 170.462 89.3371C170.638 89.1613 170.876 89.0625 171.125 89.0625H184.875C185.124 89.0625 185.362 89.1613 185.538 89.3371C185.714 89.5129 185.812 89.7514 185.812 90ZM173.868 87.8125C174.117 87.8125 174.355 87.7137 174.531 87.5379C174.707 87.3621 174.805 87.1236 174.805 86.875C174.805 85.625 176.179 84.6875 178 84.6875C179.356 84.6875 180.451 85.207 180.928 86.0766C181.054 86.2816 181.255 86.4301 181.487 86.4915C181.72 86.5529 181.968 86.5224 182.179 86.4063C182.389 86.2902 182.548 86.0974 182.62 85.8679C182.693 85.6384 182.674 85.3897 182.569 85.1734C181.76 83.6953 180.051 82.8125 178 82.8125C175.109 82.8125 172.93 84.5586 172.93 86.875C172.93 87.1236 173.029 87.3621 173.205 87.5379C173.381 87.7137 173.619 87.8125 173.868 87.8125Z" fill="#94979E"/>
<path d="M206.562 85C206.562 84.7514 206.661 84.5129 206.837 84.3371C207.013 84.1613 207.251 84.0625 207.5 84.0625H216.875C217.124 84.0625 217.362 84.1613 217.538 84.3371C217.714 84.5129 217.812 84.7514 217.812 85C217.812 85.2486 217.714 85.4871 217.538 85.6629C217.362 85.8387 217.124 85.9375 216.875 85.9375H207.5C207.251 85.9375 207.013 85.8387 206.837 85.6629C206.661 85.4871 206.562 85.2486 206.562 85ZM216.875 89.0625H207.5C207.251 89.0625 207.013 89.1613 206.837 89.3371C206.661 89.5129 206.562 89.7514 206.562 90C206.562 90.2486 206.661 90.4871 206.837 90.6629C207.013 90.8387 207.251 90.9375 207.5 90.9375H216.875C217.124 90.9375 217.362 90.8387 217.538 90.6629C217.714 90.4871 217.812 90.2486 217.812 90C217.812 89.7514 217.714 89.5129 217.538 89.3371C217.362 89.1613 217.124 89.0625 216.875 89.0625ZM216.875 94.0625H207.5C207.251 94.0625 207.013 94.1613 206.837 94.3371C206.661 94.5129 206.562 94.7514 206.562 95C206.562 95.2486 206.661 95.4871 206.837 95.6629C207.013 95.8387 207.251 95.9375 207.5 95.9375H216.875C217.124 95.9375 217.362 95.8387 217.538 95.6629C217.714 95.4871 217.812 95.2486 217.812 95C217.812 94.7514 217.714 94.5129 217.538 94.3371C217.362 94.1613 217.124 94.0625 216.875 94.0625ZM204.375 84.0625H203.125C202.876 84.0625 202.638 84.1613 202.462 84.3371C202.286 84.5129 202.188 84.7514 202.188 85C202.188 85.2486 202.286 85.4871 202.462 85.6629C202.638 85.8387 202.876 85.9375 203.125 85.9375H204.375C204.624 85.9375 204.862 85.8387 205.038 85.6629C205.214 85.4871 205.312 85.2486 205.312 85C205.312 84.7514 205.214 84.5129 205.038 84.3371C204.862 84.1613 204.624 84.0625 204.375 84.0625ZM204.375 89.0625H203.125C202.876 89.0625 202.638 89.1613 202.462 89.3371C202.286 89.5129 202.188 89.7514 202.188 90C202.188 90.2486 202.286 90.4871 202.462 90.6629C202.638 90.8387 202.876 90.9375 203.125 90.9375H204.375C204.624 90.9375 204.862 90.8387 205.038 90.6629C205.214 90.4871 205.312 90.2486 205.312 90C205.312 89.7514 205.214 89.5129 205.038 89.3371C204.862 89.1613 204.624 89.0625 204.375 89.0625ZM204.375 94.0625H203.125C202.876 94.0625 202.638 94.1613 202.462 94.3371C202.286 94.5129 202.188 94.7514 202.188 95C202.188 95.2486 202.286 95.4871 202.462 95.6629C202.638 95.8387 202.876 95.9375 203.125 95.9375H204.375C204.624 95.9375 204.862 95.8387 205.038 95.6629C205.214 95.4871 205.312 95.2486 205.312 95C205.312 94.7514 205.214 94.5129 205.038 94.3371C204.862 94.1613 204.624 94.0625 204.375 94.0625Z" fill="#94979E"/>
<path d="M248.25 82.1875H235.75C235.336 82.1875 234.938 82.3521 234.645 82.6451C234.352 82.9382 234.188 83.3356 234.188 83.75V96.25C234.188 96.6644 234.352 97.0618 234.645 97.3549C234.938 97.6479 235.336 97.8125 235.75 97.8125H248.25C248.664 97.8125 249.062 97.6479 249.355 97.3549C249.648 97.0618 249.812 96.6644 249.812 96.25V83.75C249.812 83.3356 249.648 82.9382 249.355 82.6451C249.062 82.3521 248.664 82.1875 248.25 82.1875ZM247.938 84.0625V89.0406L246.542 87.6453C246.249 87.3524 245.852 87.1878 245.438 87.1878C245.023 87.1878 244.626 87.3524 244.333 87.6453L236.062 95.9156V84.0625H247.938ZM238.692 95.9375L245.438 89.1922L247.938 91.6922V95.9375H238.692ZM237.938 87.5C237.938 87.191 238.029 86.8889 238.201 86.6319C238.373 86.375 238.617 86.1747 238.902 86.0564C239.188 85.9382 239.502 85.9072 239.805 85.9675C240.108 86.0278 240.386 86.1766 240.605 86.3951C240.823 86.6137 240.972 86.8921 241.032 87.1952C241.093 87.4983 241.062 87.8124 240.944 88.0979C240.825 88.3835 240.625 88.6275 240.368 88.7992C240.111 88.9709 239.809 89.0625 239.5 89.0625C239.086 89.0625 238.688 88.8979 238.395 88.6049C238.102 88.3118 237.938 87.9144 237.938 87.5Z" fill="#94979E"/>
</g>
</g>
</g>
<defs>
<filter id="filter0_dddd_23_1192" x="18" y="62" width="284" height="212" filterUnits="userSpaceOnUse" color-interpolation-filters="sRGB">
<feFlood flood-opacity="0" result="BackgroundImageFix"/>
<feColorMatrix in="SourceAlpha" type="matrix" values="0 0 0 0 0 0 0 0 0 0 0 0 0 0 0 0 0 0 127 0" result="hardAlpha"/>
<feOffset dy="1"/>
<feComposite in2="hardAlpha" operator="out"/>
<feColorMatrix type="matrix" values="0 0 0 0 0.878431 0 0 0 0 0.886275 0 0 0 0 0.901961 0 0 0 1 0"/>
<feBlend mode="normal" in2="BackgroundImageFix" result="effect1_dropShadow_23_1192"/>
<feColorMatrix in="SourceAlpha" type="matrix" values="0 0 0 0 0 0 0 0 0 0 0 0 0 0 0 0 0 0 127 0" result="hardAlpha"/>
<feMorphology radius="2" operator="erode" in="SourceAlpha" result="effect2_dropShadow_23_1192"/>
<feOffset dy="4"/>
<feGaussianBlur stdDeviation="4"/>
<feComposite in2="hardAlpha" operator="out"/>
<feColorMatrix type="matrix" values="0 0 0 0 0.0705882 0 0 0 0 0.0705882 0 0 0 0 0.0941176 0 0 0 0.05 0"/>
<feBlend mode="normal" in2="effect1_dropShadow_23_1192" result="effect2_dropShadow_23_1192"/>
<feColorMatrix in="SourceAlpha" type="matrix" values="0 0 0 0 0 0 0 0 0 0 0 0 0 0 0 0 0 0 127 0" result="hardAlpha"/>
<feMorphology radius="2" operator="erode" in="SourceAlpha" result="effect3_dropShadow_23_1192"/>
<feOffset dy="2"/>
<feGaussianBlur stdDeviation="2"/>
<feComposite in2="hardAlpha" operator="out"/>
<feColorMatrix type="matrix" values="0 0 0 0 0.0705882 0 0 0 0 0.0705882 0 0 0 0 0.0941176 0 0 0 0.1 0"/>
<feBlend mode="normal" in2="effect2_dropShadow_23_1192" result="effect3_dropShadow_23_1192"/>
<feColorMatrix in="SourceAlpha" type="matrix" values="0 0 0 0 0 0 0 0 0 0 0 0 0 0 0 0 0 0 127 0" result="hardAlpha"/>
<feOffset dy="-1"/>
<feComposite in2="hardAlpha" operator="out"/>
<feColorMatrix type="matrix" values="0 0 0 0 1 0 0 0 0 1 0 0 0 0 1 0 0 0 1 0"/>
<feBlend mode="normal" in2="effect3_dropShadow_23_1192" result="effect4_dropShadow_23_1192"/>
<feBlend mode="normal" in="SourceGraphic" in2="effect4_dropShadow_23_1192" result="shape"/>
</filter>
<clipPath id="clip0_23_1192">
<rect width="320" height="146" fill="white"/>
</clipPath>
<clipPath id="clip1_23_1192">
<rect width="240" height="32" fill="white" transform="translate(40 80)"/>
</clipPath>
</defs>
</svg>
