<svg width="43" height="26" viewBox="0 0 43 26" fill="none" xmlns="http://www.w3.org/2000/svg">
<g clip-path="url(#clip0_23_1010)">
<g clip-path="url(#clip1_23_1010)">
<g clip-path="url(#clip2_23_1010)">
<path d="M17.5867 10.281C14.2563 9.88963 11.0414 8.81979 8.14056 7.13752C5.23972 5.45526 2.71447 3.19626 0.720703 0.5V13H40.7207L17.5867 10.281Z" fill="url(#paint0_linear_23_1010)"/>
<path d="M17.5867 10.281C14.2563 9.88963 11.0414 8.81979 8.14056 7.13752C5.23972 5.45526 2.71447 3.19626 0.720703 0.5V13H40.7207L17.5867 10.281Z" fill="url(#paint1_linear_23_1010)"/>
<path d="M17.5867 15.719C14.2563 16.1104 11.0414 17.1802 8.14056 18.8625C5.23972 20.5447 2.71447 22.8037 0.720703 25.5V13H40.7207L17.5867 15.719Z" fill="url(#paint2_linear_23_1010)"/>
<path d="M17.5867 15.719C14.2563 16.1104 11.0414 17.1802 8.14056 18.8625C5.23972 20.5447 2.71447 22.8037 0.720703 25.5V13H40.7207L17.5867 15.719Z" fill="url(#paint3_linear_23_1010)"/>
<path d="M38.2203 9.09961H33.2203C31.3425 9.09961 29.8203 10.6218 29.8203 12.4996C29.8203 14.3774 31.3425 15.8996 33.2203 15.8996H38.2203C40.0981 15.8996 41.6203 14.3774 41.6203 12.4996C41.6203 10.6218 40.0981 9.09961 38.2203 9.09961Z" fill="white" stroke="#EDEFF3" stroke-width="0.8"/>
</g>
</g>
</g>
<defs>
<linearGradient id="paint0_linear_23_1010" x1="40.7207" y1="6.75" x2="0.720703" y2="7.5" gradientUnits="userSpaceOnUse">
<stop offset="0.515" stop-color="#FDFDFD"/>
<stop offset="1" stop-color="#FDFDFD" stop-opacity="0"/>
</linearGradient>
<linearGradient id="paint1_linear_23_1010" x1="40.7207" y1="6.75" x2="0.720703" y2="7.5" gradientUnits="userSpaceOnUse">
<stop offset="0.515" stop-color="#FDFDFD"/>
<stop offset="1" stop-color="#FDFDFD" stop-opacity="0"/>
</linearGradient>
<linearGradient id="paint2_linear_23_1010" x1="40.7207" y1="19.25" x2="0.720702" y2="18.5" gradientUnits="userSpaceOnUse">
<stop offset="0.515" stop-color="#FDFDFD"/>
<stop offset="1" stop-color="#FDFDFD" stop-opacity="0"/>
</linearGradient>
<linearGradient id="paint3_linear_23_1010" x1="40.7207" y1="19.25" x2="0.720702" y2="18.5" gradientUnits="userSpaceOnUse">
<stop offset="0.515" stop-color="#FDFDFD"/>
<stop offset="1" stop-color="#FDFDFD" stop-opacity="0"/>
</linearGradient>
<clipPath id="clip0_23_1010">
<rect width="42" height="25" fill="white" transform="translate(0.220703 0.5)"/>
</clipPath>
<clipPath id="clip1_23_1010">
<rect width="42" height="25" fill="white" transform="translate(0.220703 0.5)"/>
</clipPath>
<clipPath id="clip2_23_1010">
<rect width="42" height="25" fill="white" transform="translate(0.220703 0.5)"/>
</clipPath>
</defs>
</svg>
