<svg width="298" height="50" viewBox="0 0 298 50" fill="none" xmlns="http://www.w3.org/2000/svg">
<g filter="url(#filter0_d_23_942)">
<rect x="83.21" y="6" width="131.57" height="34" rx="17" fill="white" shape-rendering="crispEdges"/>
<g clip-path="url(#clip0_23_942)">
<rect opacity="0.0838592" x="95.3496" y="14.1396" width="17.72" height="17.72" rx="8.86" fill="#02D524"/>
<rect x="100.21" y="19" width="8" height="8" rx="4" fill="#02D524"/>
</g>
<path d="M126.57 28.144C125.183 28.144 124.074 27.8133 123.242 27.152C122.41 26.4907 121.925 25.5467 121.786 24.32H123.434C123.53 25.12 123.85 25.728 124.394 26.144C124.938 26.56 125.674 26.768 126.602 26.768C127.381 26.768 127.967 26.624 128.362 26.336C128.767 26.048 128.97 25.6373 128.97 25.104C128.97 24.624 128.837 24.2453 128.57 23.968C128.303 23.68 127.882 23.4453 127.306 23.264L125.306 22.624C124.282 22.2933 123.53 21.8773 123.05 21.376C122.57 20.8747 122.33 20.24 122.33 19.472C122.33 18.8213 122.49 18.2613 122.81 17.792C123.141 17.3227 123.599 16.96 124.186 16.704C124.783 16.4373 125.477 16.304 126.266 16.304C127.482 16.304 128.453 16.6133 129.178 17.232C129.914 17.84 130.335 18.688 130.442 19.776H128.794C128.666 19.0507 128.389 18.5227 127.962 18.192C127.535 17.8507 126.949 17.68 126.202 17.68C125.498 17.68 124.949 17.8187 124.554 18.096C124.159 18.3733 123.962 18.7627 123.962 19.264C123.962 19.6693 124.09 20.0107 124.346 20.288C124.613 20.5547 125.05 20.784 125.658 20.976L127.754 21.648C128.725 21.9573 129.439 22.3787 129.898 22.912C130.367 23.4453 130.602 24.1173 130.602 24.928C130.602 25.952 130.25 26.7467 129.546 27.312C128.842 27.8667 127.85 28.144 126.57 28.144ZM132.042 28V19.84H133.706V28H132.042ZM131.962 18.24V16.368H133.802V18.24H131.962ZM135.722 28V19.84H137.306V21.76H137.386V28H135.722ZM141.514 28V22.752C141.514 22.1867 141.37 21.7653 141.082 21.488C140.805 21.2107 140.389 21.072 139.834 21.072C139.354 21.072 138.928 21.1787 138.554 21.392C138.192 21.6053 137.904 21.8987 137.69 22.272C137.488 22.6453 137.386 23.088 137.386 23.6L137.178 21.648C137.445 21.04 137.856 20.56 138.41 20.208C138.965 19.856 139.61 19.68 140.346 19.68C141.221 19.68 141.909 19.9253 142.41 20.416C142.912 20.9067 143.162 21.5573 143.162 22.368V28H141.514ZM148.497 28.16C147.719 28.16 147.025 27.9787 146.417 27.616C145.809 27.2427 145.329 26.736 144.977 26.096C144.636 25.456 144.465 24.7253 144.465 23.904C144.465 23.0827 144.636 22.3573 144.977 21.728C145.329 21.088 145.809 20.5867 146.417 20.224C147.025 19.8613 147.713 19.68 148.481 19.68C149.132 19.68 149.713 19.8027 150.225 20.048C150.737 20.2933 151.159 20.6347 151.489 21.072C151.82 21.5093 152.033 22.0267 152.129 22.624H150.561C150.455 22.144 150.22 21.76 149.857 21.472C149.505 21.184 149.057 21.04 148.513 21.04C148.044 21.04 147.633 21.1573 147.281 21.392C146.929 21.6267 146.657 21.9573 146.465 22.384C146.273 22.8107 146.177 23.3173 146.177 23.904C146.177 24.48 146.273 24.9867 146.465 25.424C146.657 25.8613 146.929 26.2027 147.281 26.448C147.633 26.6827 148.049 26.8 148.529 26.8C149.052 26.8 149.495 26.6613 149.857 26.384C150.231 26.096 150.471 25.712 150.577 25.232H152.145C152.039 25.8187 151.815 26.3307 151.473 26.768C151.143 27.2053 150.721 27.5467 150.209 27.792C149.697 28.0373 149.127 28.16 148.497 28.16ZM156.962 28.16C156.14 28.16 155.415 27.9787 154.786 27.616C154.167 27.2533 153.682 26.752 153.33 26.112C152.978 25.472 152.802 24.736 152.802 23.904C152.802 23.0613 152.972 22.3253 153.314 21.696C153.666 21.056 154.156 20.56 154.786 20.208C155.415 19.856 156.135 19.68 156.946 19.68C157.735 19.68 158.418 19.8507 158.994 20.192C159.58 20.5227 160.028 20.9867 160.338 21.584C160.658 22.1813 160.818 22.8907 160.818 23.712C160.818 23.84 160.812 23.9627 160.802 24.08C160.802 24.1867 160.791 24.2987 160.77 24.416H153.922V23.168H159.602L159.186 23.664C159.186 22.7893 158.988 22.1227 158.594 21.664C158.199 21.2053 157.65 20.976 156.946 20.976C156.188 20.976 155.586 21.2373 155.138 21.76C154.7 22.272 154.482 22.9867 154.482 23.904C154.482 24.832 154.7 25.5573 155.138 26.08C155.586 26.6027 156.204 26.864 156.994 26.864C157.474 26.864 157.89 26.768 158.242 26.576C158.594 26.3733 158.855 26.08 159.026 25.696H160.594C160.327 26.464 159.874 27.0667 159.234 27.504C158.604 27.9413 157.847 28.16 156.962 28.16ZM164.428 28V26.608C165.548 25.6907 166.481 24.8907 167.228 24.208C167.985 23.5253 168.588 22.9173 169.036 22.384C169.484 21.8507 169.804 21.3653 169.996 20.928C170.188 20.4907 170.284 20.0533 170.284 19.616C170.284 19.0187 170.108 18.5547 169.756 18.224C169.415 17.8827 168.94 17.712 168.332 17.712C167.703 17.712 167.191 17.8987 166.796 18.272C166.401 18.6347 166.156 19.152 166.06 19.824H164.332C164.439 18.768 164.849 17.92 165.564 17.28C166.289 16.64 167.244 16.32 168.428 16.32C169.559 16.32 170.449 16.6187 171.1 17.216C171.761 17.8133 172.092 18.6347 172.092 19.68C172.092 20.2133 171.991 20.7467 171.788 21.28C171.596 21.8027 171.276 22.352 170.828 22.928C170.38 23.4933 169.777 24.1227 169.02 24.816C168.273 25.4987 167.345 26.2773 166.236 27.152L165.836 26.608H172.3V28H164.428ZM177.877 28.16C176.949 28.16 176.133 27.9093 175.429 27.408C174.725 26.896 174.176 26.192 173.781 25.296C173.387 24.3893 173.189 23.3547 173.189 22.192C173.189 21.0293 173.387 20.0107 173.781 19.136C174.176 18.2507 174.725 17.5627 175.429 17.072C176.133 16.5707 176.949 16.32 177.877 16.32C178.805 16.32 179.616 16.5707 180.309 17.072C181.013 17.5627 181.563 18.2507 181.957 19.136C182.352 20.0107 182.549 21.0293 182.549 22.192C182.549 23.3653 182.352 24.4 181.957 25.296C181.563 26.192 181.013 26.896 180.309 27.408C179.605 27.9093 178.795 28.16 177.877 28.16ZM177.877 26.704C178.485 26.704 179.003 26.5173 179.429 26.144C179.856 25.76 180.176 25.232 180.389 24.56C180.613 23.8773 180.725 23.0827 180.725 22.176C180.725 21.28 180.613 20.5013 180.389 19.84C180.176 19.1787 179.856 18.672 179.429 18.32C179.013 17.9573 178.496 17.776 177.877 17.776C177.248 17.776 176.72 17.9573 176.293 18.32C175.877 18.6827 175.557 19.1947 175.333 19.856C175.12 20.5067 175.013 21.28 175.013 22.176C175.013 23.0827 175.125 23.8773 175.349 24.56C175.573 25.2427 175.893 25.7707 176.309 26.144C176.736 26.5173 177.259 26.704 177.877 26.704ZM183.382 28V26.608C184.502 25.6907 185.435 24.8907 186.182 24.208C186.939 23.5253 187.542 22.9173 187.99 22.384C188.438 21.8507 188.758 21.3653 188.95 20.928C189.142 20.4907 189.238 20.0533 189.238 19.616C189.238 19.0187 189.062 18.5547 188.71 18.224C188.369 17.8827 187.894 17.712 187.286 17.712C186.657 17.712 186.145 17.8987 185.75 18.272C185.355 18.6347 185.11 19.152 185.014 19.824H183.286C183.393 18.768 183.803 17.92 184.518 17.28C185.243 16.64 186.198 16.32 187.382 16.32C188.513 16.32 189.403 16.6187 190.054 17.216C190.715 17.8133 191.046 18.6347 191.046 19.68C191.046 20.2133 190.945 20.7467 190.742 21.28C190.55 21.8027 190.23 22.352 189.782 22.928C189.334 23.4933 188.731 24.1227 187.974 24.816C187.227 25.4987 186.299 26.2773 185.19 27.152L184.79 26.608H191.254V28H183.382ZM196.831 28.16C195.903 28.16 195.087 27.9093 194.383 27.408C193.679 26.896 193.13 26.192 192.735 25.296C192.34 24.3893 192.143 23.3547 192.143 22.192C192.143 21.0293 192.34 20.0107 192.735 19.136C193.13 18.2507 193.679 17.5627 194.383 17.072C195.087 16.5707 195.903 16.32 196.831 16.32C197.759 16.32 198.57 16.5707 199.263 17.072C199.967 17.5627 200.516 18.2507 200.911 19.136C201.306 20.0107 201.503 21.0293 201.503 22.192C201.503 23.3653 201.306 24.4 200.911 25.296C200.516 26.192 199.967 26.896 199.263 27.408C198.559 27.9093 197.748 28.16 196.831 28.16ZM196.831 26.704C197.439 26.704 197.956 26.5173 198.383 26.144C198.81 25.76 199.13 25.232 199.343 24.56C199.567 23.8773 199.679 23.0827 199.679 22.176C199.679 21.28 199.567 20.5013 199.343 19.84C199.13 19.1787 198.81 18.672 198.383 18.32C197.967 17.9573 197.45 17.776 196.831 17.776C196.202 17.776 195.674 17.9573 195.247 18.32C194.831 18.6827 194.511 19.1947 194.287 19.856C194.074 20.5067 193.967 21.28 193.967 22.176C193.967 23.0827 194.079 23.8773 194.303 24.56C194.527 25.2427 194.847 25.7707 195.263 26.144C195.69 26.5173 196.212 26.704 196.831 26.704Z" fill="#191919"/>
<rect x="83.71" y="6.5" width="130.58" height="33" rx="16.5" stroke="white"/>
<g clip-path="url(#clip1_23_942)">
<g clip-path="url(#clip2_23_942)">
<g clip-path="url(#clip3_23_942)">
<path fill-rule="evenodd" clip-rule="evenodd" d="M79.71 23.5C79.71 12.178 88.888 3 100.21 3H143.21V2H100.21C88.671 2 79.255 11.09 78.733 22.5H3.20996V23.5H78.71C78.71 35.374 88.336 45 100.21 45H143.21V44H100.21C88.888 44 79.71 34.822 79.71 23.5Z" fill="url(#paint0_linear_23_942)"/>
</g>
</g>
</g>
<g clip-path="url(#clip4_23_942)">
<g clip-path="url(#clip5_23_942)">
<g clip-path="url(#clip6_23_942)">
<path fill-rule="evenodd" clip-rule="evenodd" d="M218.29 23C218.29 11.678 209.112 2.5 197.79 2.5H154.79V1.5H197.79C209.329 1.5 218.745 10.59 219.267 22H294.79V23H219.29C219.29 34.874 209.664 44.5 197.79 44.5H154.79V43.5H197.79C209.112 43.5 218.29 34.322 218.29 23Z" fill="url(#paint1_linear_23_942)"/>
</g>
</g>
</g>
</g>
<defs>
<filter id="filter0_d_23_942" x="0.209961" y="0.5" width="297.58" height="49" filterUnits="userSpaceOnUse" color-interpolation-filters="sRGB">
<feFlood flood-opacity="0" result="BackgroundImageFix"/>
<feColorMatrix in="SourceAlpha" type="matrix" values="0 0 0 0 0 0 0 0 0 0 0 0 0 0 0 0 0 0 127 0" result="hardAlpha"/>
<feOffset dy="2"/>
<feGaussianBlur stdDeviation="1.5"/>
<feComposite in2="hardAlpha" operator="out"/>
<feColorMatrix type="matrix" values="0 0 0 0 0.713726 0 0 0 0 0.713726 0 0 0 0 0.713726 0 0 0 0.25 0"/>
<feBlend mode="normal" in2="BackgroundImageFix" result="effect1_dropShadow_23_942"/>
<feBlend mode="normal" in="SourceGraphic" in2="effect1_dropShadow_23_942" result="shape"/>
</filter>
<linearGradient id="paint0_linear_23_942" x1="143.21" y1="23.5" x2="3.20996" y2="23.5" gradientUnits="userSpaceOnUse">
<stop stop-color="white" stop-opacity="0"/>
<stop offset="0.454" stop-color="white"/>
<stop offset="1" stop-color="white" stop-opacity="0"/>
</linearGradient>
<linearGradient id="paint1_linear_23_942" x1="154.79" y1="23" x2="294.79" y2="23" gradientUnits="userSpaceOnUse">
<stop stop-color="white" stop-opacity="0"/>
<stop offset="0.454" stop-color="white"/>
<stop offset="1" stop-color="white" stop-opacity="0"/>
</linearGradient>
<clipPath id="clip0_23_942">
<rect width="18" height="18" fill="white" transform="translate(95.21 14)"/>
</clipPath>
<clipPath id="clip1_23_942">
<rect width="140" height="43" fill="white" transform="translate(3.20996 1.5)"/>
</clipPath>
<clipPath id="clip2_23_942">
<rect width="140" height="43" fill="white" transform="translate(3.20996 1.5)"/>
</clipPath>
<clipPath id="clip3_23_942">
<rect width="140" height="44" fill="white" transform="translate(3.20996 1)"/>
</clipPath>
<clipPath id="clip4_23_942">
<rect width="140" height="43" fill="white" transform="translate(154.79 1.5)"/>
</clipPath>
<clipPath id="clip5_23_942">
<rect width="140" height="43" fill="white" transform="translate(154.79 1.5)"/>
</clipPath>
<clipPath id="clip6_23_942">
<rect width="140" height="43" fill="white" transform="translate(154.79 1.5)"/>
</clipPath>
</defs>
</svg>
