<svg width="20" height="20" viewBox="0 0 20 20" fill="none" xmlns="http://www.w3.org/2000/svg">
<g clip-path="url(#clip0_1227_2523)">
<path fill-rule="evenodd" clip-rule="evenodd" d="M14.0735 19.6473L14.0232 2.51012C13.8929 2.39469 13.6387 2.42955 13.5393 2.45526L12.8774 2.63698C12.7957 2.39884 12.6896 2.16779 12.5606 1.94669C12.0909 1.15241 11.4045 0.732406 10.5735 0.731264H10.5709C10.5154 0.731264 10.4606 0.735835 10.4051 0.739835L10.3987 0.740406C10.3746 0.714191 10.3497 0.688654 10.3238 0.663835C9.96253 0.320978 9.49802 0.153549 8.94189 0.167835C7.86963 0.195263 6.80189 0.882121 5.93544 2.10212C5.32576 2.96098 4.86318 4.03926 4.73092 4.87412L2.61931 5.45412C1.99802 5.62726 1.97866 5.64441 1.89673 6.16384C1.83544 6.55698 0.208984 17.7107 0.208984 17.7107L13.84 19.801L14.0735 19.6473ZM9.60769 0.951264C9.4264 0.845549 9.21415 0.796406 8.96253 0.800978C7.30705 0.843264 5.86318 3.13641 5.49479 4.66441L7.0806 4.22898L7.36382 4.15126C7.57157 3.18098 8.09286 2.17412 8.77479 1.52612C9.01323 1.29392 9.2947 1.09951 9.60705 0.951264H9.60769ZM8.14769 3.93584L10.4238 3.31069C10.4309 2.78498 10.3664 2.00783 10.0696 1.45926C9.7535 1.57469 9.48769 1.77698 9.29673 1.95812C8.78511 2.44555 8.36769 3.18898 8.14834 3.93584H8.14769ZM11.1367 3.11526L12.1948 2.82441C12.0258 2.33755 11.6245 1.52155 10.8109 1.38441C11.0638 1.96326 11.129 2.63355 11.1367 3.11526Z" fill="#95BF47"/>
<path d="M17.1276 3.78421C17.0463 3.7785 15.4708 3.75678 15.4708 3.75678C15.4708 3.75678 14.1527 2.62193 14.0224 2.50593C13.972 2.46468 13.908 2.43867 13.8398 2.43164V19.7974L19.7463 18.4951C19.7463 18.4951 17.336 4.04307 17.3205 3.94421C17.313 3.90223 17.2899 3.86367 17.2548 3.83467C17.2198 3.80567 17.1754 3.78791 17.1276 3.78421Z" fill="#5E8E3E"/>
<path d="M10.5666 6.48138L9.88018 8.75795C9.88018 8.75795 9.11501 8.44881 8.20727 8.49967C6.87695 8.57395 6.86276 9.31853 6.8763 9.50538C6.94856 10.5225 9.96856 10.7454 10.1382 13.13C10.2718 15.006 9.0163 16.29 7.20727 16.3905C5.0363 16.5122 3.84082 15.3762 3.84082 15.3762L4.30082 13.6402C4.30082 13.6402 5.50405 14.4454 6.46663 14.3911C7.0963 14.3562 7.32082 13.9025 7.29824 13.5814C7.2034 12.254 4.74405 12.3317 4.58856 10.15C4.45824 8.31281 5.81759 6.45281 8.81824 6.28481C9.97437 6.21967 10.5666 6.48195 10.5666 6.48195" fill="white"/>
</g>
<defs>
<clipPath id="clip0_1227_2523">
<rect width="20" height="20" fill="white"/>
</clipPath>
</defs>
</svg>
