<svg width="16" height="14" viewBox="0 0 16 14" fill="none" xmlns="http://www.w3.org/2000/svg">
<path d="M15.4279 7.66354L9.80293 13.2885C9.62681 13.4647 9.38794 13.5636 9.13887 13.5636C8.8898 13.5636 8.65093 13.4647 8.4748 13.2885C8.29869 13.1124 8.19974 12.8736 8.19974 12.6245C8.19974 12.3754 8.29869 12.1365 8.4748 11.9604L12.499 7.93776H1.01465C0.766008 7.93776 0.527551 7.83899 0.351736 7.66317C0.175921 7.48736 0.0771484 7.2489 0.0771484 7.00026C0.0771484 6.75162 0.175921 6.51316 0.351736 6.33735C0.527551 6.16153 0.766008 6.06276 1.01465 6.06276H12.499L8.47637 2.03776C8.30025 1.86164 8.2013 1.62277 8.2013 1.3737C8.2013 1.12462 8.30025 0.885754 8.47637 0.709634C8.65249 0.533514 8.89136 0.43457 9.14043 0.43457C9.3895 0.43457 9.62837 0.533514 9.80449 0.709634L15.4295 6.33463C15.5169 6.42185 15.5862 6.52547 15.6335 6.63955C15.6807 6.75364 15.705 6.87593 15.7048 6.99941C15.7047 7.12289 15.6802 7.24513 15.6326 7.3591C15.5851 7.47307 15.5155 7.57653 15.4279 7.66354Z" fill="white"/>
</svg>
