<svg width="16" height="14" viewBox="0 0 16 14" fill="none" xmlns="http://www.w3.org/2000/svg">
<path d="M0.279616 7.22897L5.96276 12.854C6.1407 13.0301 6.38204 13.129 6.63368 13.129C6.88533 13.129 7.12667 13.0301 7.30461 12.854C7.48255 12.6778 7.58251 12.439 7.58251 12.1899C7.58251 11.9408 7.48255 11.702 7.30461 11.5258L3.2388 7.50319H14.8419C15.0931 7.50319 15.334 7.40442 15.5116 7.2286C15.6893 7.05279 15.7891 6.81433 15.7891 6.56569C15.7891 6.31705 15.6893 6.07859 15.5116 5.90278C15.334 5.72696 15.0931 5.62819 14.8419 5.62819H3.2388L7.30303 1.60319C7.48097 1.42707 7.58094 1.1882 7.58094 0.939126C7.58094 0.690054 7.48097 0.451184 7.30303 0.275064C7.12509 0.0989432 6.88375 2.6244e-09 6.6321 0C6.38046 -2.6244e-09 6.13912 0.0989432 5.96118 0.275064L0.278039 5.90006C0.18972 5.98728 0.119678 6.0909 0.0719366 6.20498C0.0241957 6.31907 -0.000305176 6.44136 -0.00015831 6.56484C-1.14441e-05 6.68832 0.0247793 6.81056 0.0727921 6.92453C0.120804 7.0385 0.191091 7.14196 0.279616 7.22897Z" fill="white"/>
</svg>
